<svg viewBox="0 0 288 131.59624" xmlns="http://www.w3.org/2000/svg">
 <g transform="translate(238.7 -575)" class="butt">
  <g transform="matrix(1.624 0 0 1.624 -560.5 1131)">
   <ellipse cx="286.8" cy="-301.6" rx="86.7" ry="38.54" style="fill:none;stroke-linecap:round;stroke-linejoin:round;stroke-width:3.947;stroke:#000000"/>
   <g style="fill:none;stroke-width:3.042;stroke:#000000" aria-label="PUSH">
    <path d="m230.9-316.3v13.42h6.077q3.373 0 5.216-1.747t1.842-4.976q0-3.206-1.842-4.953-1.842-1.747-5.216-1.747zm-4.833-3.972h10.91q6.005 0 9.068 2.727 3.086 2.704 3.086 7.943 0 5.287-3.086 7.991-3.062 2.704-9.068 2.704h-6.077v14.36h-4.833z" style="fill:none;stroke-width:3.042;stroke:#000000"/>
    <path d="m255.1-320.2h4.857v21.7q0 5.742 2.081 8.278 2.081 2.512 6.747 2.512 4.641 0 6.723-2.512 2.081-2.536 2.081-8.278v-21.7h4.857v22.3q0 6.986-3.469 10.55-3.445 3.565-10.19 3.565-6.771 0-10.24-3.565-3.445-3.565-3.445-10.55z" style="fill:none;stroke-width:3.042;stroke:#000000"/>
    <path d="m313-319.1v4.713q-2.751-1.316-5.192-1.962t-4.713-0.646q-3.948 0-6.101 1.531-2.129 1.531-2.129 4.354 0 2.369 1.412 3.589 1.436 1.196 5.407 1.938l2.919 0.5981q5.407 1.029 7.967 3.637 2.584 2.584 2.584 6.938 0 5.192-3.493 7.871-3.469 2.68-10.19 2.68-2.536 0-5.407-0.5742-2.847-0.5742-5.91-1.699v-4.976q2.943 1.651 5.766 2.488t5.551 0.8374q4.139 0 6.388-1.627 2.249-1.627 2.249-4.641 0-2.632-1.627-4.115-1.603-1.483-5.287-2.225l-2.943-0.5742q-5.407-1.077-7.824-3.373-2.416-2.297-2.416-6.388 0-4.737 3.326-7.465 3.35-2.727 9.211-2.727 2.512 0 5.12 0.4546t5.335 1.364z" style="fill:none;stroke-width:3.042;stroke:#000000"/>
    <path d="m322.7-320.2h4.833v14.64h17.56v-14.64h4.833v35.72h-4.833v-17.01h-17.56v17.01h-4.833z" style="fill:none;stroke-width:3.042;stroke:#000000"/>
   </g>
  </g>
 </g>
</svg>
