<svg width="576" height="372.6" version="1.1" viewBox="0 0 576.01611 372.58694" xmlns="http://www.w3.org/2000/svg">
        <g transform="matrix(7.747 0 0 7.747 -19.46 -121.2)">
            <path d="m73.47 55.27c0.1171 0 1.93 1.737 1.93 1.849 0 0.146-1.658 1.765-2.472 2.414-3.415 2.722-7.409 4.107-11.74 4.072-0.5606-4e-3 -1.27-0.03135-1.576-0.05994h-5.29e-4c-4.97-0.465-9.442-2.76-12.69-6.513-4.032-4.657-5.569-11.03-4.109-17.03 0.6218-2.555 1.732-4.755 4.042-8.007 1.273-1.792 1.96-2.8 2.378-3.488 0.9172-1.511 1.635-3.251 1.86-4.512 0.1548-0.8646 0.1405-2.231-0.02946-2.862-0.1759-0.6533-0.453-1.15-0.8511-1.527-1.133-1.072-2.694-0.8515-4.137 0.5839-0.9984 0.9929-1.598 2.174-1.923 3.783-0.1497 0.7426-0.1487 2.898 0.0016 3.893 0.1205 0.7963 0.2919 1.487 0.4759 1.916 0.3683 0.858 0.3562 1.379-0.03669 1.543-0.165 0.069-0.2748 0.07419-0.4971 0.02429-0.4014-0.09-0.6177-0.2141-1.003-0.5777-0.8073-0.7617-1.461-2.113-1.812-3.747-0.1898-0.8826-0.2074-2.901-0.03255-3.696 0.8465-3.848 3.626-6.545 7.519-7.295 0.7771-0.1498 1.547-0.2332 2.303-0.2527l-3.8e-5 -6e-6c3.273-0.08466 6.265 1.032 8.305 3.167 0.7416 0.7757 1.196 1.453 1.196 1.782 0 0.3357-0.1519 0.6018-0.4036 0.7069-0.4336 0.1812-0.6951 0.08974-1.636-0.5736-1.315-0.9269-2.785-1.628-4.11-1.96-0.7868-0.197-1.458-0.3029-1.519-0.2398-0.02606 0.027 0.08851 0.2549 0.2548 0.5064 1.072 1.622 1.267 3.743 0.5876 6.395-0.4924 1.921-1.434 3.805-2.97 5.943-2.332 3.246-3.059 4.342-3.875 5.837-0.8082 1.482-1.334 2.938-1.606 4.45-0.1624 0.9027-0.2281 3.475-0.1158 4.532 0.6975 6.556 5.177 12.03 11.39 13.91 1.538 0.4661 2.893 0.6601 4.62 0.662 4.257 4e-3 8.108-1.659 11.56-4.991 0.3645-0.3521 0.6912-0.6403 0.7266-0.6403" style="stroke-width:.2646;stroke:#08c1ab" />
            <path d="m57.23 57.64c-0.1539 0.1956-0.3302 0.2045-0.7866 0.04034h-5.17e-4c-0.7867-0.2832-1.817-1.031-2.48-1.799-1.019-1.181-1.642-2.457-1.989-4.073-0.1877-0.875-0.207-2.885-0.03605-3.725 0.3888-1.909 1.351-3.667 2.88-5.257 0.5493-0.5714 1.524-1.406 3.19-2.73 2.354-1.871 3.385-2.98 4.109-4.419 0.8209-1.631 1.096-3.109 1.031-5.531-0.0388-1.435-0.1573-2.427-0.4361-3.659-0.2378-1.051-0.2565-1.273-0.1344-1.593 0.1246-0.3263 0.4107-0.5882 0.6429-0.5882l-2.2e-5 -4e-6c0.8461 0 2.077 2.488 2.522 5.099 0.1366 0.8003 0.1349 2.548-4e-3 3.615-0.3706 2.858-1.549 5.24-3.681 7.438-0.8323 0.8583-1.499 1.429-2.845 2.433-2.015 1.504-3.066 2.579-3.851 3.941-0.723 1.253-0.9537 2.389-0.8425 4.15 0.1559 2.468 0.7502 3.943 2.137 5.301 0.7236 0.7086 0.8504 1.006 0.5753 1.356zm10.51-30.97c0.04559 0.0012 0.09408 0.0052 0.1457 0.01185 1.375 0.1778 2.914 0.6412 4.452 1.34 1.28 0.5822 2.117 1.259 2.733 2.214 0.1441 0.223 0.4733 0.837 0.7316 1.364 0.2584 0.5269 0.5742 1.149 0.7024 1.383 0.2153 0.3933 0.2329 0.4637 0.2329 0.9272 0 0.6907-0.2149 1.141-0.8718 1.829-1.008 1.055-2.369 1.724-3.887 1.91-0.6207 0.07604-0.785 0.07573-1.452-1e-3 -1.807-0.2084-2.904-0.9307-2.901-1.908 7.31e-4 -0.3031 0.1388-1.09 0.2019-1.153 0.0216-0.0216 0.2598 0.06173 0.5297 0.185 1.257 0.5747 2.728 0.7936 3.802 0.5662 0.8397-0.1779 2.161-0.9784 2.291-1.388 0.0243-0.0766-0.07434-0.2765-0.2977-0.6045-0.1835-0.2695-0.4788-0.7926-0.6562-1.163-0.3783-0.7902-0.7645-1.355-1.135-1.659-0.3938-0.3227-1.429-0.7961-2.531-1.158l-0.9741-0.3192-0.3524-0.4389c-0.1938-0.2412-0.5548-0.6523-0.8024-0.9136-0.3563-0.3759-0.4505-0.5144-0.4505-0.663 0-0.2461 0.1697-0.3704 0.4888-0.3618zm7.838 12.54c0.1072-0.0095 0.1925 0.07319 0.3267 0.2682 0.5191 0.7544 0.6673 1.517 0.3958 2.034-0.334 0.6366-1.894 1.247-3.601 1.408l-0.7629 0.0716-0.2846 0.3744c-1.035 1.361-1.831 1.957-3.017 2.261-0.6264 0.1602-1.601 0.1584-2.263-0.0038v-1e-3c-0.545-0.134-1.47-0.5367-1.468-0.6393 1e-3 -0.0726 1.682-1.89 1.82-1.968 0.0444-0.02501 0.169-0.01491 0.2768 0.02269 0.2832 0.0987 0.7931 0.03795 1.142-0.1359 0.5765-0.2871 1.39-1.261 1.861-2.227l0.1684-0.3469 1.15-0.03605c1.916-0.0606 3.171-0.3632 4.023-0.9696 0.09545-0.06797 0.1676-0.1067 0.2319-0.1124zm-9.767 8.393c0.8811 0.2218 1.93 0.7257 2.798 1.344 0.8295 0.5911 1.863 1.638 2.366 2.397 0.4268 0.6436 0.8491 1.491 0.8491 1.704 0 0.1199-1.614 1.786-1.73 1.786-0.0299 0-0.07666-0.03449-0.1034-0.07689-0.0267-0.0425-0.1277-0.2443-0.2244-0.4482-0.2723-0.5746-0.9191-1.509-1.406-2.03-0.6135-0.657-1.309-1.162-2.196-1.593-0.4355-0.2117-0.7958-0.4281-0.8501-0.511-0.3888-0.5933-1.107-1.236-2.149-1.923-0.4286-0.2826-0.7953-0.556-0.815-0.6076-0.08145-0.2122 0.3793-0.3242 1.063-0.3323 0.6833-0.0081 1.589 0.0878 2.398 0.2914z" style="stroke-width:.2646;stroke:#08c1ab" />
            <path transform="matrix(.1291 0 0 .1291 2.514 15.64)" d="m130.6 104.5c-3.48 0.0403-7.245 0.5429-9.477 1.393-3.677 1.4-7.412 5.067-8.545 8.391-0.8934 2.622-1.036 7.726-0.291 10.41 1.295 4.661 5.652 7.836 14.61 10.65 7.812 2.455 10.19 4.497 9.035 7.744-1.618 4.543-8.787 4.418-16.58-0.2891-1.763-1.065-3.412-1.938-3.66-1.938-0.5418 0-5.824 6.454-5.824 7.115 0 0.8248 4.472 4.437 7.205 5.82 2.704 1.368 6.715 2.667 9.312 3.012 7.028 0.9322 14.14-0.8665 18.3-4.633 6.061-5.476 6.235-17.51 0.3203-22.16-2.575-2.024-3.981-2.686-10.37-4.889-3.054-1.053-6.201-2.252-6.994-2.662-4.627-2.393-3.501-7.31 1.789-7.818 3.15-0.3027 7.852 0.9154 10.83 2.807 1.204 0.7634 2.348 1.389 2.543 1.389 0.5648 0 5.359-6.612 5.359-7.391 0-1.566-7.079-5.392-12.01-6.494-1.489-0.3327-3.472-0.4756-5.561-0.4512zm43.11 0.4551c-17.29-6e-3 -19.81 0.0899-20.47 0.75-0.9923 0.9926-1.09 9.378-0.1191 10.18 0.3706 0.3076 3.378 0.58 7.299 0.6582l6.674 0.1348 0.123 19.11c0.086 13.12 0.291 19.29 0.6562 19.75 0.709 0.8577 10.96 0.9181 11.81 0.0723 0.428-0.4278 0.5723-5.498 0.5723-19.86v-19.29l7.062-0.1328 7.062-0.1328 0.1406-5.229c0.1006-3.86-0.0255-5.329-0.4805-5.617-0.3386-0.2146-9.486-0.3965-20.33-0.4004zm-172.4 1.205c-0.1422 0.9926 11 46.97 11.86 48.94 0.4534 1.035 0.7058 1.074 6.645 1.074 4.364 0 6.321-0.1747 6.662-0.5977 0.2659-0.3292 1.803-6.71 3.416-14.18 1.613-7.47 3.07-13.8 3.234-14.07 0.5403-0.8742 0.9614 0.633 4.016 14.24 1.655 7.373 3.215 13.67 3.467 14 0.3229 0.4215 2.2 0.5977 6.33 0.5977 4.113 0 6.013-0.1778 6.357-0.5977 0.2703-0.3292 3.23-11.67 6.578-25.19 4.944-19.98 5.966-24.67 5.434-25.01-0.8152-0.5136-10.97-0.5472-11.78-0.0371-0.3234 0.2055-2.031 7.424-3.795 16.04-1.991 9.728-3.403 15.61-3.723 15.5-0.283-0.0939-1.934-7.123-3.668-15.62-2.027-9.926-3.393-15.6-3.828-15.87-0.5268-0.3336-2.834-0.4685-5.125-0.4336v-1e-5c-2.291 0.0349-4.567 0.2412-5.039 0.5898-0.5948 0.4399-1.617 4.633-3.855 15.81-2.832 14.14-3.328 16.15-3.855 15.62-0.1091-0.1097-1.667-7.075-3.463-15.48-1.796-8.404-3.56-15.57-3.92-15.93-0.4963-0.4974-2.011-0.621-6.234-0.5195-5.187 0.125-5.583 0.2-5.713 1.104zm86.82-1.197v2e-3c-8.291-0.0279-16.64 0.055-17.22 0.2754-0.677 0.2598-0.7559 2.938-0.7559 25.3 0 13.75 0.1451 25.15 0.3203 25.32 0.1756 0.1759 7.995 0.3203 17.38 0.3203 12.63 0 17.21-0.1469 17.64-0.5723 0.6469-0.6469 0.8-8.864 0.1836-9.834-0.2745-0.4323-3.302-0.6223-11.36-0.7168l-10.99-0.1272v-9.1l9.793-0.1289c7.101-0.0945 9.893-0.2907 10.16-0.7168 0.2058-0.3235 0.3809-2.35 0.3848-4.504 0.0108-5.648 0.4705-5.42-11.04-5.42h-9.541v-8.604l11.13-0.1289 11.13-0.1289 0.1367-5.229c0.1007-3.86-0.0217-5.329-0.4766-5.617-0.3527-0.2239-8.588-0.3648-16.88-0.3926zm14.34 64.61c-2.747 0-5.494 0.1986-5.889 0.5938-0.8284 0.8283-0.8284 49.25 0 50.08 0.4237 0.4238 4.738 0.5762 16.43 0.5762 11.69 0 16-0.1524 16.42-0.5762 0.367-0.3671 0.5723-2.231 0.5723-5.168 0-2.937-0.2053-4.807-0.5723-5.174-0.4101-0.4106-3.426-0.5762-10.53-0.5762h-9.961v-19.29c0-14.37-0.15-19.44-0.5781-19.87-0.3951-0.3951-3.142-0.5918-5.889-0.5918zm-36.63 6e-3c-2.046 0.0248-3.776 0.1494-4.152 0.3887-0.6535 0.4155-17.87 48.51-17.87 49.92 0 0.8786 0.3741 0.9316 6.166 0.9316 4.352 0 6.312-0.1774 6.658-0.5996 0.27-0.3292 0.9718-2.212 1.561-4.188 0.5887-1.975 1.282-3.862 1.541-4.191 0.3389-0.43 2.458-0.5977 7.555-0.5977 3.896 0 7.42 0.1286 7.828 0.2852 0.4285 0.1644 1.277 2.036 2.006 4.428 0.6945 2.279 1.507 4.302 1.809 4.496 0.3014 0.1929 3.196 0.3556 6.43 0.3594 4.495 6e-3 5.938-0.144 6.127-0.6367 0.2555-0.6658-16.76-48.92-17.62-49.99-0.2707-0.3339-3.066-0.5514-5.92-0.6035-0.7135-0.0132-1.431-0.0163-2.113-8e-3zm-56.64 6e-3c-0.7077-9e-3 -1.452-6e-3 -2.189 6e-3 -2.951 0.0457-5.807 0.2465-5.912 0.5606-0.2732 0.8195 14.93 49.88 15.59 50.3 1.004 0.6392 13.55 0.4354 14.1-0.2285 0.7857-0.9539 15.98-49.64 15.66-50.16-0.3428-0.5547-11.2-0.6373-12.06-0.0918-0.3166 0.2013-2.705 7.888-5.305 17.08-2.6 9.194-4.941 16.79-5.205 16.88-0.264 0.0879-2.587-7.441-5.164-16.73-2.577-9.29-4.933-17.05-5.232-17.24-0.3537-0.2288-2.154-0.3474-4.277-0.373zm236.2 0.01-1.125 1.793c-0.6185 0.9875-2.807 5.091-4.861 9.117-2.054 4.026-3.958 7.243-4.234 7.15-0.2763-0.092-2.562-4.141-5.08-8.996l-4.58-8.828-6.355-0.1328c-5.003-0.1054-6.405 5e-3 -6.602 0.5176-0.1371 0.3574 3.421 7.417 7.908 15.69l8.158 15.04v9.365c0 6.637 0.1694 9.523 0.5762 9.936 0.3778 0.3781 2.395 0.5781 5.891 0.5781 3.495 0 5.511-0.2001 5.889-0.5781 0.4077-0.4076 0.5723-3.287 0.5723-9.912v-9.336l8.629-15.26c4.744-8.391 8.501-15.46 8.35-15.7-0.1515-0.2448-3.169-0.4453-6.705-0.4453zm-47.34 0.084c-2.18-5e-3 -4.763 5e-3 -7.789 0.0274l-16.94 0.1289-0.125 24.89c-0.0682 13.69-0.0201 25.17 0.1055 25.5 0.3247 0.8474 34.27 0.871 35.12 0.0234 0.9133-0.9136 0.7664-9.218-0.1797-10.16-0.6393-0.6392-2.371-0.752-11.51-0.752h-10.75l0.1348-4.43 0.1367-4.428 9.793-0.1309c7.101-0.0945 9.897-0.2907 10.17-0.7168 0.6134-0.9656 0.4579-8.708-0.1875-9.354-0.4091-0.4091-3.372-0.5723-10.29-0.5723h-9.721v-8.619h10.68c7.666 0 10.84-0.1641 11.25-0.5762 0.8485-0.8483 0.7805-9.67-0.0801-10.38-0.3511-0.29-3.265-0.4314-9.807-0.4453zm-63.04 0.1524-0.123 24.9c-0.0682 13.69-0.024 25.17 0.1035 25.5 0.1817 0.4745 3.775 0.5796 16.65 0.4805l16.41-0.1289 0.1348-5.385c0.0744-2.963 0.0744-5.43 0-5.484-0.0744-0.0519-4.772-0.2106-10.43-0.3555l-10.29-0.2656-0.2402-19.63-0.2363-19.63h-5.984zm-67.45 16.18c0.5528-0.1843 4.641 13.56 4.236 14.24-0.1566 0.2533-2.105 0.4648-4.328 0.4648-3.53 0-4.04-0.1077-4.039-0.8398 0.0015-1.464 3.648-13.7 4.131-13.87z" style="stroke-width:2.05;stroke:#08c1ab" />
            <path transform="matrix(.1291 0 0 .1291 2.514 15.64)" d="m69.84 233.6c-7.894-0.0403-13.09 1.935-17.99 6.834-5.019 5.019-7.133 10.71-7.131 19.19 0.0023 8.498 2.055 14.48 6.604 19.27 3.97 4.173 8.082 6.215 14.21 7.062 8.719 1.206 17.78-1.598 22.76-7.043 4.455-4.875 6.438-10.74 6.438-19.05 0-8.658-2.142-14.68-6.918-19.45-4.606-4.606-10.31-6.768-17.97-6.807zm54.58 0.0137c-7.682 0.0163-13.28 2.159-17.96 6.869-4.735 4.775-6.895 10.84-6.895 19.38 0 8.637 2.12 14.6 6.918 19.46 3.694 3.743 7.74 5.703 13.64 6.607 1.568 0.2409 4.249 0.3396 5.961 0.2188 15.26-1.074 23.46-10.33 23.46-26.49 0-8.437-1.974-13.95-6.814-19.01-4.651-4.864-10.34-7.045-18.32-7.029zm-117.1 26.04c0 21.46 0.09141 24.41 0.7539 25.07 0.9537 0.954 10.68 1.105 11.6 0.1797 0.406-0.4062 0.5723-3.214 0.5723-9.576v-9h8.824c10.7 0 10.33 0.1904 10.32-5.422-0.0039-2.154-0.1756-4.18-0.3809-4.504-0.2685-0.4222-2.923-0.627-9.449-0.7207l-9.076-0.127-0.1348-4.908-0.1367-4.91 10.19-4e-3c5.605-4e-3 10.47-0.1857 10.81-0.4004 0.4566-0.2884 0.5778-1.757 0.4766-5.617l-0.1367-5.229-16.46-0.127c-2.938-0.0225-5.448-0.0328-7.566-0.0273v5e-5c-6.356 0.0147-9.198 0.1564-9.549 0.4473-0.5388 0.447-0.6582 4.871-0.6582 24.87zm149.1-25.16l-0.1191 25.11c-0.0974 19.74 3e-3 25.17 0.4766 25.48 0.8749 0.5555 16.68 0.4813 21.44-0.0996 11.93-1.456 18.47-6.818 20.86-17.1 0.9823-4.22 0.9757-12.86-0.0117-16.53-2.214-8.225-7.36-13.42-15.83-15.97-2.435-0.734-4.702-0.8731-14.85-0.8809zm-31.79 10.79c4.113-0.0147 6.79 1.332 8.924 4.488 2.022 2.99 2.666 5.418 2.678 10.1 0.0155 6.701-2.226 11.54-6.309 13.61-2.217 1.125-5.956 1.538-8.523 0.9434-2.728-0.6316-5.991-3.614-7.383-6.75-0.9564-2.154-1.125-3.317-1.129-7.799-4e-3 -4.462 0.1624-5.63 1.084-7.658 2.192-4.824 5.407-6.914 10.66-6.93zm-54.67 0.0312c3.143 9e-3 5.142 0.7676 7.227 2.65 2.487 2.247 3.891 5.757 4.184 10.46 0.5381 8.655-2.877 14.7-9.055 16.02-2.669 0.5733-2.823 0.5714-5.32-0.0176-4.148-0.9766-6.335-3.021-8.008-7.49-0.8717-2.329-1.01-3.55-0.877-7.822 0.1413-4.518 0.3148-5.37 1.602-7.883 2.052-4.007 4.5-5.638 8.828-5.883v2e-3c0.4992-0.0279 0.971-0.0426 1.42-0.041zm98.91 0.6719h5.346c5.16 0 5.419 0.0511 7.422 1.438 1.438 0.9955 2.516 2.318 3.512 4.309 1.339 2.678 1.434 3.229 1.422 8.139-0.0124 4.431-0.1884 5.647-1.102 7.656-1.37 3.013-2.686 4.446-5.109 5.564-2.357 1.088-11.12 1.317-11.51 0.3008-0.1271-0.3328-0.174-6.636-0.1035-14.01zm-149.8 52.86c-5.801-0.0411-11.19 0.1571-11.65 0.6211-0.4315 0.4318-0.5742 6.608-0.5742 24.86 0 21.44 0.08972 24.38 0.7539 25.04 0.5911 0.5911 1.848 0.7498 5.865 0.7441 2.812-4e-3 5.375-0.1744 5.697-0.3789 0.4122-0.2619 0.6235-2.635 0.7168-8.012l0.1348-7.639 6.223-0.3047c11.11-0.5398 16.35-3.755 18.63-11.44 0.9614-3.238 0.9743-9.139 0.02734-12.33-1.531-5.154-5.926-9.051-11.69-10.36-2.12-0.4825-8.335-0.7634-14.14-0.8047zm114.4 0.0293c-2.747 0-5.494 0.1967-5.889 0.5918-0.4196 0.4198-0.5762 4.225-0.5762 14.12 0 7.452-0.1581 13.55-0.3555 13.55-0.1975-1e-3 -4.345-6.067-9.217-13.48-4.872-7.415-9.151-13.78-9.508-14.14-0.4864-0.4896-1.923-0.6269-5.746-0.5254l-5.096 0.1367-0.125 25.11c-0.09739 19.77 6e-3 25.19 0.4805 25.49 0.9907 0.6288 10.62 0.4768 11.28-0.1777 0.4196-0.4193 0.5781-4.169 0.5781-13.88 0-7.377 0.1858-13.31 0.4199-13.31 0.2325 0 4.574 6.122 9.648 13.61 5.951 8.777 9.585 13.71 10.23 13.88 0.5524 0.148 2.762 0.2715 4.916 0.2754 2.928 4e-3 4.111-0.1855 4.674-0.748 0.6642-0.6642 0.748-3.599 0.748-25.04 0-18.25-0.1408-24.43-0.5723-24.86-0.3951-0.3951-3.144-0.5918-5.891-0.5918zm-65.46 0.0234c-5.307-6e-3 -5.649 0.0496-6.289 1.068-0.7037 1.12-17.54 48.27-17.54 49.12 0 0.2657 0.2685 0.5921 0.5977 0.7246 0.3292 0.1333 3.102 0.2522 6.164 0.2754 4.27 0.0287 5.7-0.1215 6.135-0.6445 0.3114-0.3752 1.149-2.476 1.857-4.668l1.285-3.984 7.715-0.1309c5.799-0.0984 7.833 0.0217 8.207 0.4805 0.2734 0.3355 0.9659 2.224 1.541 4.199 0.5752 1.975 1.394 3.858 1.818 4.188 0.5178 0.4012 2.637 0.5996 6.441 0.5996 4.728 0 5.718-0.1244 5.961-0.7558 0.3325-0.8665-16.9-49.57-17.73-50.11-0.2991-0.1929-3.072-0.3555-6.16-0.3594zm169.9 8e-3c-3.102 0.0186-6.149 0.1713-6.311 0.4336-0.1523 0.2464 3.498 7.417 8.111 15.94l8.393 15.49v9.396c0 7.059 0.1471 9.449 0.5957 9.637 0.8643 0.3533 10.2 0.3717 11.09 0.0273 0.6555-0.2516 0.7559-1.571 0.7559-9.824v-9.537l8.676-15.35c5.478-9.692 8.508-15.52 8.221-15.8-0.256-0.2588-3.263-0.3978-6.879-0.3203l-6.426 0.1328-4.645 8.852c-2.555 4.868-4.845 8.916-5.088 8.996-0.2433 0.0812-2.442-3.794-4.885-8.611-2.443-4.817-4.68-8.914-4.969-9.107-0.3864-0.2588-3.543-0.373-6.645-0.3535zm-31.68 0.0684c-1.455-9e-3 -2.997-5e-3 -4.574 0.0156l-10.77 0.1406-0.125 25.11c-0.0974 19.77 6e-3 25.19 0.4805 25.49 0.7758 0.4904 10.47 0.4984 11.24 8e-3 0.4162-0.2643 0.6274-2.732 0.7207-8.492l0.1328-8.119 3.674-0.1387 3.68-0.1406 3.875 8.043c2.132 4.422 4.238 8.305 4.676 8.635 0.926 0.6973 11.47 0.8382 12.52 0.168 0.6386-0.4045-1.396-4.814-7.682-16.63l-1.566-2.938 2.887-3.088c3.706-3.962 4.713-6.824 4.412-12.55-0.4456-8.489-5.256-13.58-14.27-15.1-1.367-0.2306-4.944-0.3785-9.309-0.4043zm-32.14 6e-3c-2.611-5e-3 -5.713 5e-3 -9.359 0.0273l-20.29 0.127-0.1406 5.225c-0.1007 3.86 0.0256 5.333 0.4805 5.621 0.3386 0.2146 3.576 0.3927 7.197 0.3965l6.586 0.01v19.12c0 16.74 0.0951 19.21 0.7539 19.87 0.591 0.5911 1.848 0.7498 5.865 0.7442 2.812-4e-3 5.379-0.1739 5.705-0.3809 0.4518-0.2871 0.6212-4.982 0.7168-19.74l0.123-19.37 6.842-0.2402c5.372-0.1884 6.939-0.393 7.295-0.957 0.7361-1.168 0.5862-9.363-0.1836-10-0.3524-0.2899-3.756-0.4323-11.59-0.4473zm35.03 11c1.737 0.0287 3.414 0.1835 4.164 0.4043 2.288 0.6732 3.685 2.815 3.688 5.654 2e-3 2.9-1.125 4.79-3.502 5.869-2.458 1.116-9.779 1.334-10.17 0.3027-0.1324-0.3445-0.1779-3.201-0.1035-6.346l0.1348-5.717 4.068-0.1523c0.5596-0.0209 1.146-0.0249 1.725-0.0156zm-183.3 8e-3c3.58 0.048 5.083 0.8004 6.385 2.936 1.074 1.761 1.233 5.23 0.3242 7.025-0.3291 0.6505-1.328 1.675-2.219 2.275-1.384 0.9328-2.238 1.092-5.873 1.092-3.057 0-4.32-0.1795-4.492-0.6289-0.1333-0.3437-0.1779-3.303-0.1035-6.58l0.1309-5.959 4.18-0.1387c0.6017-0.0202 1.157-0.0285 1.668-0.0215zm42.29 5.178c0.09312 9e-3 0.189 0.0496 0.2656 0.127 0.594 0.594 4.094 13.36 3.848 14.03v4e-3c-0.3859 0.9734-7.867 0.9995-8.24 0.0274-0.2319-0.6041 3.33-13.55 3.879-14.1 0.06508-0.0627 0.1548-0.0922 0.248-0.084z" style="stroke-width:2.05;stroke:#08c1ab" />
        </g>
    </svg>