<svg width="129.5" height="180.3" version="1.1" viewBox="0 0 129.53882 180.34537" xmlns="http://www.w3.org/2000/svg">
 <g transform="translate(2033 -320.9)">
  <path id="tail" d="m-1996 321.4c-2.832 0.0733-5.721 0.386-8.635 0.9476-14.6 2.814-25.02 12.93-28.2 27.36-0.6557 2.981-0.5897 10.55 0.1221 13.86 1.318 6.127 3.769 11.2 6.796 14.05 1.445 1.364 2.256 1.829 3.761 2.167 0.8337 0.1871 1.245 0.1677 1.864-0.0911 1.473-0.6155 1.519-2.569 0.1376-5.786-0.6903-1.608-1.333-4.197-1.785-7.184-0.5636-3.732-0.5674-11.81-0.01-14.6 1.217-6.033 3.467-10.46 7.211-14.19 5.412-5.383 11.27-6.208 15.51-2.19 1.493 1.412 2.532 3.277 3.192 5.726 0.6375 2.368 0.6909 7.492 0.1104 10.73-0.8463 4.727-3.537 11.25-6.976 16.92-1.566 2.58-4.144 6.36-8.916 13.08-8.662 12.2-12.83 20.45-15.16 30.03-5.475 22.5 0.288 46.39 15.41 63.85 12.19 14.07 28.96 22.68 47.59 24.42 1.148 0.1072 3.806 0.2098 5.908 0.2248 16.25 0.1298 31.23-5.064 44.03-15.27 3.053-2.433 9.269-8.504 9.269-9.052 0-0.4206-6.799-6.934-7.238-6.934-0.1325 0-1.358 1.081-2.725 2.401-12.93 12.5-27.38 18.73-43.34 18.72-6.479-7e-3 -11.56-0.7345-17.33-2.482-23.3-7.06-40.1-27.58-42.71-52.16-0.4213-3.96-0.1751-13.61 0.4341-16.99 1.02-5.67 2.99-11.13 6.021-16.69 3.059-5.609 5.786-9.718 14.53-21.89 5.76-8.019 9.29-15.08 11.14-22.29 2.55-9.948 1.818-17.9-2.203-23.98-0.6235-0.943-1.053-1.798-0.9554-1.899 0.2284-0.2366 2.745 0.1604 5.695 0.8992 4.969 1.244 10.48 3.872 15.41 7.348 3.528 2.488 4.509 2.83 6.135 2.151 0.9438-0.3944 1.513-1.392 1.513-2.651 0-1.236-1.703-3.775-4.484-6.684-7.653-8.005-18.87-12.19-31.15-11.88z"/>
 </g>
</svg>
