<svg viewBox="0 0 24.24 9.099" xmlns="http://www.w3.org/2000/svg">
 <path d="m0-7.076e-4h24.24v9.099h-24.24" style="fill:#26559a;stroke-width:.08015"/>
 <path d="m12.76 4.512c-0.1626 0-0.2797 0.05322-0.3986 0.1074v1.227c0.114 0.01114 0.1788 0.01114 0.2871 0.01114 0.3902 0 0.4436-0.1786 0.4436-0.4277v-0.5862c0-0.1839-0.06107-0.3317-0.3321-0.3317m-2.591-0.067c-0.2707 0-0.3323 0.1484-0.3323 0.3322v0.1032h0.6646v-0.1032c-8e-5 -0.1838-0.06187-0.3322-0.3323-0.3322m-5.019 1.277c0 0.1452 0.0686 0.2208 0.2202 0.2208 0.1627 0 0.2589-0.05289 0.3776-0.1075v-0.2908h-0.3557c-0.1683 8e-5 -0.2422 0.03118-0.2422 0.1775m10.13-1.21c-0.2711 0-0.3651 0.1478-0.3651 0.3316v0.6715c0 0.1845 0.09393 0.3324 0.3651 0.3324 0.2703 0 0.3651-0.1481 0.3651-0.3324v-0.6715c-8.1e-5 -0.1838-0.09473-0.3316-0.3651-0.3316m-11.46 1.963h-0.7968v-1.926h-0.3985v-0.664h0.3985v-0.3986c0-0.5416 0.2249-0.8637 0.8635-0.8637h0.532v0.664h-0.3323c-0.2488 0-0.2653 0.09281-0.2653 0.2659l-0.001122 0.3323h0.6025l-0.07053 0.664h-0.532zm2.724 0.00497h-0.6642l-0.02853-0.1678c-0.3034 0.1678-0.5742 0.1951-0.7527 0.1951-0.4873 0-0.7465-0.325-0.7465-0.7744 0-0.5302 0.3025-0.7195 0.8438-0.7195h0.5509v-0.1146c0-0.2708-0.0311-0.3502-0.4479-0.3502h-0.6816l0.06668-0.664h0.7449c0.9146 0 1.115 0.2888 1.115 1.02zm2.259-1.883c-0.4133-0.07085-0.5321-0.08639-0.7308-0.08639-0.3573 0-0.4653 0.07878-0.4653 0.3816v0.5732c0 0.303 0.108 0.382 0.4653 0.382 0.1988 0 0.3175-0.01563 0.7308-0.08672v0.6474c-0.3622 0.08126-0.598 0.1025-0.7972 0.1025-0.8559 0-1.196-0.4494-1.196-1.099v-0.4652c0-0.6497 0.3399-1.1 1.196-1.1 0.1992 0 0.4352 0.02156 0.7972 0.1028zm2.494 0.8149h-1.461v0.05354c0 0.303 0.108 0.382 0.4652 0.382 0.3212 0 0.5171-0.01563 0.9297-0.08672v0.6474c-0.3978 0.08126-0.6051 0.1025-0.9957 0.1025-0.8558 0-1.196-0.4494-1.196-1.099v-0.5318c0-0.5679 0.2526-1.033 1.129-1.033 0.8769 0 1.129 0.4599 1.129 1.033zm2.591 0.01218c0 0.6275-0.1795 1.085-1.267 1.085-0.3926 0-0.6233-0.03462-1.057-0.1013v-3.587l0.7967-0.1326v1.255c0.1721-0.06396 0.3951-0.09634 0.598-0.09634 0.797 0 0.9297 0.3569 0.9297 0.93v0.6472zm2.554 0.01371c0 0.5413-0.2238 1.066-1.16 1.066-0.9368 0-1.165-0.5251-1.165-1.066v-0.5226c0-0.5415 0.2279-1.067 1.165-1.067 0.9363 0 1.16 0.5252 1.16 1.067zm2.552 0c0 0.5413-0.224 1.066-1.16 1.066-0.9368 0-1.165-0.5251-1.165-1.066v-0.5226c0-0.5415 0.2281-1.067 1.165-1.067 0.9359 0 1.16 0.5252 1.16 1.067zm2.62 1.037h-0.8639l-0.7304-1.217v1.217h-0.7968v-3.653l0.7968-0.1326v2.352l0.7304-1.156h0.8639l-0.7975 1.262zm-3.782-1.963c-0.2706 0-0.3646 0.1478-0.3646 0.3316v0.6715c0 0.1845 0.09393 0.3324 0.3646 0.3324 0.2703 0 0.3659-0.1481 0.3659-0.3324v-0.6715c0-0.1838-0.09561-0.3316-0.3659-0.3316m4.237 1.509c0.1342 0 0.2411 0.1092 0.2411 0.2456 0 0.1386-0.1069 0.2467-0.2422 0.2467-0.1342 0-0.2434-0.1082-0.2434-0.2467 0-0.1364 0.1092-0.2456 0.2434-0.2456zm-0.001282 0.03823c-0.108 0-0.1964 0.09281-0.1964 0.2076 0 0.1168 0.08848 0.2086 0.1977 0.2086 0.1091 0.00112 0.1964-0.09185 0.1964-0.2076 0-0.1156-0.08736-0.2086-0.1964-0.2086zm-0.04584 0.3506h-0.04352v-0.2743c0.02284-0.00329 0.04464-0.00641 0.07734-0.00641 0.04168 0 0.06884 0.00857 0.08527 0.02068 0.01635 0.0121 0.02492 0.03061 0.02492 0.05682 0 0.03598-0.0238 0.05786-0.05322 0.06668v0.00216c0.02396 0.00441 0.04039 0.02597 0.04568 0.06636 0.006572 0.04272 0.01314 0.05915 0.01755 0.06797h-0.04584c-0.006572-0.00866-0.0133-0.03398-0.01851-0.06981-0.006572-0.0351-0.02396-0.04825-0.05915-0.04825h-0.03046v0.1181zm0-0.1519h0.03174c0.03582 0 0.06652-0.01314 0.06652-0.04696 0-0.02421-0.01755-0.04817-0.06652-0.04817-0.01427 0-0.02428 0.0012-0.03174 0.00216z" style="fill:#ffffff;stroke-width:.08015"/>
</svg>
