<svg  viewBox="0 0 200 200"  xmlns="http://www.w3.org/2000/svg"><path d="m159.4 22.81c-16.4 0-29.69 13.29-29.69 29.69 0 4.43 0.9739 8.639 2.714 12.41l26.97 52.9 26.97-52.9c1.739-3.769 2.714-7.978 2.714-12.41 0-16.4-13.29-29.69-29.69-29.69zm0 11.88c9.834 0 17.81 7.979 17.81 17.81s-7.979 17.81-17.81 17.81-17.81-7.979-17.81-17.81 7.979-17.81 17.81-17.81z" style="fill:#0000d4;stroke-width:.3711"/><path d="m40.62 82.19-35.62 71.25 47.5 23.75 47.5-23.75 47.5 23.75 47.5-23.75-20.04-40.07-6.703 13.15 10.81 21.6-27.4 13.7-9.185-45.95 1.705-1.705-5.659-11.13-2.899 2.899-35.62-23.75-35.62 23.75zm53.44 18.23v42.71l-33.21 16.61 8.582-42.9 1.531-1.021zm11.88 0 23.1 15.4 1.519 1.021 8.582 42.9-33.2-16.61zm-62.07 1.809 13.65 13.65-9.196 45.95-27.39-13.7z" style="fill:#000000;stroke-width:.3711"/></svg>
