<svg version="1.1" viewBox="0 0 200 200" xmlns="http://www.w3.org/2000/svg">
 <rect x="1.192" y="76.19" width="197.6" height="47.62" style="fill:#280b0b;stroke-linecap:round;stroke-linejoin:round;stroke-width:2.384;stroke:#cccccc"/>
 <path d="m121.4 81.93c-1.715 0-3.547 0.3709-5.492 1.113-1.946 0.7168-3.788 1.626-5.529 2.727-1.741 1.075-3.367 2.432-4.877 4.07-1.485 1.613-2.624 3.365-3.418 5.26s-1.189 3.649-1.189 5.262c0 0.6912 0.06341 1.343 0.1914 1.957 0.4864 2.099 1.459 3.777 2.918 5.031 1.459 1.229 3.035 1.844 4.725 1.844 1.715 0 3.443-0.4747 5.184-1.422 1.741-0.9728 3.199-2.239 4.377-3.801 1.203-1.587 1.805-3.161 1.805-4.723s-0.4996-2.728-1.498-3.496c-0.5376-0.384-1.126-0.5742-1.766-0.5742s-1.255 0.1403-1.844 0.4219c-0.5888 0.256-0.8828 0.4731-0.8828 0.6523 0 0.1536 0.2441 0.1671 0.7305 0.03907 0.4864-0.1536 0.9726-0.2305 1.459-0.2305s0.9591 0.2556 1.42 0.7676 0.6914 1.344 0.6914 2.496c0 2.125-0.9474 4.135-2.842 6.029-1.869 1.894-3.879 2.842-6.029 2.842-1.536 0-2.866-0.4362-3.992-1.307s-1.895-2.189-2.305-3.955c-0.1024-0.5376-0.1543-1.101-0.1543-1.689 0-1.434 0.3209-3.034 0.9609-4.801 0.6656-1.792 1.663-3.495 2.994-5.107 1.331-1.638 2.803-3.045 4.416-4.223 1.638-1.178 3.379-2.177 5.223-2.996s3.598-1.229 5.262-1.229c1.587 0 3.021 0.3459 4.301 1.037 0.7168 0.4352 1.14 1.215 1.268 2.342 0.0512 0.3584 0.07617 0.858 0.07617 1.498 0 0.6144-0.1153 1.446-0.3457 2.496-0.5888 2.714-1.498 5.504-2.727 8.371-3.174 7.578-4.762 12.94-4.762 16.09 0 1.946 0.615 3.033 1.844 3.264 0.2304 0.0512 0.461 0.07618 0.6914 0.07618 1.51 0 3.455-0.8052 5.836-2.418 2.406-1.613 4.839-3.93 7.297-6.951 2.458-3.046 4.276-6.131 5.453-9.254 0.4864-1.408 0.7285-2.624 0.7285-3.648 0-1.05-0.2421-1.945-0.7285-2.688-0.8704-1.331-1.895-2.163-3.072-2.496l-0.7305-0.07617c-0.3328 0.0512-0.4731 0.2164-0.4219 0.498 0.0768 0.2816 0.3074 0.4603 0.6914 0.5371 0.384 0.0512 0.7549 0.1281 1.113 0.2305 0.0512 0 0.153 0.05189 0.3066 0.1543 0.1536 0.0768 0.2574 0.1786 0.3086 0.3066 0.0512 0.1024 0.153 0.3599 0.3066 0.7695 0.1536 0.384 0.2305 1.062 0.2305 2.035 0 1.843-0.5131 3.865-1.537 6.066-1.587 3.456-3.776 6.631-6.566 9.523-3.968 4.122-6.745 6.182-8.332 6.182-0.7936 0-1.189-0.588-1.189-1.766 0-1.562 0.6649-4.352 1.996-8.371 0.896-2.714 1.92-5.248 3.072-7.604 1.843-3.789 2.764-6.963 2.764-9.523 1e-5 -3.482-1.241-5.761-3.725-6.836-1.408-0.5376-2.968-0.8047-4.684-0.8047zm-34.73 1.189c-4.634 0-8.218 1.076-10.75 3.227-1.766 1.51-2.65 3.059-2.65 4.646 1e-6 1.818 0.9858 3.391 2.957 4.723 0.896 0.5888 2.637 1.446 5.223 2.572 2.611 1.101 4.339 1.985 5.184 2.65 1.562 1.331 2.344 2.867 2.344 4.607 0 0.768-0.1537 1.562-0.4609 2.381-0.9728 2.765-3.112 5.017-6.414 6.758-1.536 0.7936-3.135 1.357-4.799 1.689-1.638 0.3584-2.945 0.5391-3.918 0.5391-0.9472 0-1.664-0.02693-2.15-0.07813-4.301-0.3072-7.322-1.625-9.062-3.955-0.9728-1.306-1.459-2.828-1.459-4.568 0-2.637 0.7168-5.083 2.15-7.336 0.6656-1.05 1.55-2.009 2.65-2.879 0.512-0.4352 0.6657-0.6793 0.4609-0.7305-0.1792-0.0512-0.4617 6.9e-4 -0.8457 0.1543-1.843 0.8704-3.404 2.356-4.684 4.455-1.254 2.099-1.883 4.019-1.883 5.76 0 2.739 1.024 4.978 3.072 6.719 2.637 2.278 6.196 3.418 10.68 3.418 4.659 0 8.639-0.9973 11.94-2.994 2.867-1.715 5.044-3.764 6.529-6.145 0.8448-1.331 1.266-2.638 1.266-3.918 0-0.896-0.294-1.868-0.8828-2.918-0.5632-1.05-1.599-2.035-3.109-2.957-0.9984-0.6144-2.586-1.408-4.762-2.381-2.15-0.9984-3.584-1.715-4.301-2.15-1.92-1.203-2.881-2.56-2.881-4.07 0-1.126 0.6534-2.252 1.959-3.379 0.8448-0.7168 1.842-1.28 2.994-1.689 2.202-0.7936 4.212-1.189 6.029-1.189 2.074 0 3.699 0.563 4.877 1.689 0.8192 0.7936 1.229 1.637 1.229 2.533 0 0.256-0.03843 0.525-0.1152 0.8066-0.2816 1.075-1.037 1.69-2.266 1.844-0.6912 0.0768-1.01 0.2805-0.959 0.6133 0.0512 0.2304 0.3068 0.2823 0.7676 0.1543 1.075-0.3072 1.932-0.7165 2.572-1.229 0.9216-0.7936 1.383-1.689 1.383-2.688 0-0.256-0.02497-0.5135-0.07617-0.7695-0.3072-1.306-1.153-2.278-2.535-2.918-1.357-0.6656-3.123-0.998-5.299-0.998zm94.62 0.1152c-0.0768 0-0.4592 0.1288-1.15 0.3848s-1.498 0.7422-2.42 1.459c-1.971-0.4096-4.122-0.6152-6.451-0.6152-2.304 0-4.8 0.2056-7.488 0.6152-2.662 0.384-5.209 1.062-7.641 2.035-1.434 0.5888-2.702 1.254-3.803 1.996s-2.048 1.715-2.842 2.918c-0.7936 1.178-1.189 2.509-1.189 3.994 0 1.613 0.5496 2.931 1.65 3.955 1.101 1.024 2.523 1.537 4.264 1.537 1.536 0 2.931-0.4747 4.186-1.422 1.28-0.9728 1.931-2.291 1.957-3.955 0-0.1792-0.03844-0.308-0.1152-0.3848s-0.1652-0.0768-0.2676 0c-0.0768 0.0512-0.1287 0.1665-0.1543 0.3457-0.4608 1.306-1.241 2.407-2.342 3.303-1.075 0.896-2.201 1.344-3.379 1.344-1.152 0-2.099-0.4478-2.842-1.344-0.6912-0.8448-1.037-1.754-1.037-2.727 0-1.587 0.6399-3.109 1.92-4.568 0.9728-1.152 2.162-2.099 3.57-2.842 1.434-0.768 2.842-1.383 4.225-1.844 1.382-0.4864 3.008-0.8957 4.877-1.229 1.869-0.3584 3.852-0.5371 5.951-0.5371s4.071 0.1268 5.914 0.3828c-0.3584 0.3584-0.8062 0.8446-1.344 1.459l-0.6914 0.6914c-1.459 1.638-2.893 3.61-4.301 5.914-1.408 2.278-2.586 4.352-3.533 6.221-2.458 4.992-4.671 8.449-6.643 10.37-2.765 2.662-5.58 3.992-8.447 3.992-1.92 0-3.085-0.6899-3.494-2.072-0.1024-0.2816-0.1543-0.5641-0.1543-0.8457 0-0.7168 0.3075-1.382 0.9219-1.996 0.64-0.64 1.368-0.9609 2.188-0.9609 0.8448 0 1.55 0.1018 2.113 0.3066s0.8956 0.2567 0.998 0.1543c0.128-0.1792-0.02574-0.3464-0.4609-0.5-1.178-0.384-2.304-0.5742-3.379-0.5742-1.664 0-2.957 0.5246-3.879 1.574-0.5888 0.6656-0.8828 1.292-0.8828 1.881 0 0.5632 0.09033 1.063 0.2695 1.498 0.768 1.818 2.815 2.727 6.143 2.727 3.482 0 6.67-1.357 9.562-4.07 1.971-1.92 3.891-4.251 5.76-6.99 0.4608 0.0256 0.922 0.03906 1.383 0.03906 2.15 0 4.556-0.319 7.219-0.959 1.536-0.384 3.085-1.012 4.646-1.883 1.587-0.8704 2.957-1.906 4.109-3.109 1.997-2.048 2.994-3.968 2.994-5.76 0-2.278-1.357-4.225-4.07-5.838-1.331-0.7936-2.817-1.409-4.455-1.844 0.4608-0.4608 0.9355-0.8566 1.422-1.189 0.512-0.3328 0.806-0.5769 0.8828-0.7305 0.1024-0.1792 0.07743-0.2676-0.07617-0.2676-0.0256-0.0256-0.09096-0.03906-0.1934-0.03906zm-136.9 0.9219c-0.256 0-0.7153 0.3574-1.381 1.074-2.048-0.2816-4.289-0.4219-6.721-0.4219-2.406 0-5.043 0.2056-7.91 0.6152-4.019 0.5888-7.271 1.894-9.754 3.916-2.458 1.997-3.686 4.262-3.686 6.797 0 1.715 0.5496 3.085 1.65 4.109 1.126 1.024 2.445 1.535 3.955 1.535 1.997 0 3.713-0.7418 5.146-2.227 0.8192-0.8448 1.317-1.883 1.496-3.111 0.0256-0.384-0.06278-0.5762-0.2676-0.5762-0.128 0-0.2049 0.1672-0.2305 0.5-0.0512 0.6656-0.6027 1.561-1.652 2.688s-2.368 1.689-3.955 1.689c-1.306 0-2.341-0.4093-3.109-1.229-0.768-0.8448-1.152-1.804-1.152-2.879 0-2.227 1.19-4.328 3.57-6.299 1.894-1.562 4.456-2.674 7.682-3.34 3.251-0.6912 6.514-1.037 9.791-1.037 1.434 0 2.867 0.06341 4.301 0.1914-1.357 1.485-2.854 3.624-4.492 6.414-0.512 0.896-1.319 2.33-2.42 4.301-1.075 1.946-2.086 3.75-3.033 5.414-0.9216 1.638-2.048 3.418-3.379 5.338-0.8448 1.254-1.638 2.252-2.381 2.994s-1.574 1.473-2.496 2.189c-1.613 1.254-3.469 1.881-5.568 1.881-1.894 0-3.097-0.6649-3.609-1.996-0.128-0.3584-0.1914-0.6908-0.1914-0.998 0-0.6912 0.294-1.358 0.8828-1.998 0.6144-0.64 1.331-0.959 2.15-0.959 0.8448 0 1.562 0.1153 2.15 0.3457s0.9212 0.2688 0.998 0.1152c0.0768-0.1536-0.05197-0.2958-0.3848-0.4238-1.254-0.4352-2.444-0.6524-3.57-0.6524-1.664 0-2.969 0.5246-3.916 1.574-0.5888 0.6656-0.8848 1.294-0.8848 1.883 0 0.5632 0.1038 1.063 0.3086 1.498 0.8448 1.869 2.995 2.803 6.451 2.803 3.814 0 7.231-1.626 10.25-4.877 0.9728-1.075 1.907-2.278 2.803-3.609s1.574-2.419 2.035-3.264c0.4608-0.8704 1.101-2.125 1.92-3.764 0.3584 2.125 0.9983 4.531 1.92 7.219s2.075 4.762 3.457 6.221c1.382 1.434 2.816 2.15 4.301 2.15 1.51 0 2.842-0.6265 3.994-1.881s2.47-3.547 3.955-6.875c0.1792-0.384 0.1657-0.5762-0.03906-0.5762s-0.4104 0.1922-0.6152 0.5762c-1.357 2.714-2.56 4.583-3.609 5.607-1.024 1.024-1.996 1.535-2.918 1.535-0.6656 0-1.292-0.2306-1.881-0.6914-0.5632-0.4864-1.192-1.253-1.883-2.303-2.022-3.098-3.443-6.912-4.262-11.44 1.229-0.0512 2.407-0.1665 3.533-0.3457 3.942-0.64 7.09-1.87 9.445-3.688 1.869-1.485 2.805-2.982 2.805-4.492 0-2.355-1.922-4.096-5.762-5.223-0.64-0.1792-1.906-0.4213-3.801-0.7285 0.128-0.3584 0.1914-0.6524 0.1914-0.8828 0-0.256-0.07687-0.3848-0.2305-0.3848zm-0.4219 2.227c1.894 0.3072 3.149 0.5513 3.764 0.7305 1.997 0.6144 3.136 1.639 3.418 3.072 0.0512 0.2048 0.07617 0.4085 0.07617 0.6133 0 1.357-0.7802 2.752-2.342 4.186-2.048 1.92-4.533 3.06-7.451 3.418-0.4864 0.0512-1.278 0.1281-2.379 0.2305-1.075 0.0768-1.896 0.1671-2.459 0.2695 0.8704-1.715 2.202-4.033 3.994-6.951s2.918-4.775 3.379-5.568zm134.6 0c4.531 1.075 6.797 3.11 6.797 6.105 0 2.637-1.639 5.196-4.916 7.68-1.69 1.254-3.634 2.215-5.836 2.881-2.176 0.64-4.2 0.9609-6.068 0.9609h-0.5371c1.05-1.613 2.714-4.455 4.992-8.525 2.278-4.07 4.135-7.105 5.568-9.102zm-122.1 25.38c-0.4352 0-0.858 0.1672-1.268 0.5s-0.6152 0.844-0.6152 1.535c0 0.2048 0.1153 0.4354 0.3457 0.6914 0.2304 0.2816 0.5648 0.4219 1 0.4219s0.8311-0.1537 1.189-0.4609 0.564-0.5878 0.6152-0.8438c0.0512-0.2816 0.07617-0.5257 0.07617-0.7305s-0.1153-0.4354-0.3457-0.6914c-0.2304-0.2816-0.5628-0.4219-0.998-0.4219zm42.6 0c-0.4352 0-0.858 0.1672-1.268 0.5-0.4096 0.3328-0.6133 0.844-0.6133 1.535 0 0.2048 0.1153 0.4354 0.3457 0.6914 0.2304 0.2816 0.5628 0.4219 0.998 0.4219s0.8311-0.1537 1.189-0.4609c0.3584-0.3072 0.564-0.5878 0.6152-0.8438 0.0512-0.2816 0.07617-0.5257 0.07617-0.7305s-0.1153-0.4354-0.3457-0.6914c-0.2304-0.2816-0.5628-0.4219-0.998-0.4219zm45.45 0c-0.4352 0-0.856 0.1672-1.266 0.5s-0.6152 0.844-0.6152 1.535c0 0.2048 0.1153 0.4354 0.3457 0.6914 0.2304 0.2816 0.5628 0.4219 0.998 0.4219s0.833-0.1537 1.191-0.4609 0.5621-0.5878 0.6133-0.8438c0.0512-0.2816 0.07812-0.5257 0.07812-0.7305s-0.1153-0.4354-0.3457-0.6914c-0.2304-0.2816-0.5648-0.4219-1-0.4219zm42.23 0c-0.4352 0-0.858 0.1672-1.268 0.5s-0.6152 0.844-0.6152 1.535c0 0.2048 0.1153 0.4354 0.3457 0.6914 0.2304 0.2816 0.5628 0.4219 0.998 0.4219s0.833-0.1537 1.191-0.4609 0.5621-0.5878 0.6133-0.8438c0.0512-0.2816 0.07812-0.5257 0.07812-0.7305s-0.1153-0.4354-0.3457-0.6914c-0.2304-0.2816-0.5628-0.4219-0.998-0.4219z" style="fill:#ff0000"/>
</svg>
