<svg enable-background="new 0 0 124 33" version="1.1" viewBox="0 0 87.93 90.38" xml:space="preserve" xmlns="http://www.w3.org/2000/svg"><g transform="translate(-47.54 60.21)"><path d="m58.09 6.749h-6.839c-0.468 0-0.866 0.34-0.939 0.802l-2.766 17.54c-0.055 0.346 0.213 0.658 0.564 0.658h3.265c0.468 0 0.866-0.34 0.939-0.803l0.746-4.73c0.072-0.463 0.471-0.803 0.938-0.803h2.165c4.505 0 7.105-2.18 7.784-6.5 0.306-1.89 0.013-3.375-0.872-4.415-0.972-1.142-2.696-1.746-4.985-1.746zm0.789 6.405c-0.374 2.454-2.249 2.454-4.062 2.454h-1.032l0.724-4.583c0.043-0.277 0.283-0.481 0.563-0.481h0.473c1.235 0 2.4 0 3.002 0.704 0.359 0.42 0.469 1.044 0.332 1.906z" style="fill:#253b80"/><path d="m78.54 13.08h-3.275c-0.279 0-0.52 0.204-0.563 0.481l-0.145 0.916-0.229-0.332c-0.709-1.029-2.29-1.373-3.868-1.373-3.619 0-6.71 2.741-7.312 6.586-0.313 1.918 0.132 3.752 1.22 5.031 0.998 1.176 2.426 1.666 4.125 1.666 2.916 0 4.533-1.875 4.533-1.875l-0.146 0.91c-0.055 0.348 0.213 0.66 0.562 0.66h2.95c0.469 0 0.865-0.34 0.939-0.803l1.77-11.21c0.056-0.345-0.211-0.658-0.561-0.658zm-4.565 6.374c-0.316 1.871-1.801 3.127-3.695 3.127-0.951 0-1.711-0.305-2.199-0.883-0.484-0.574-0.668-1.391-0.514-2.301 0.295-1.855 1.805-3.152 3.67-3.152 0.93 0 1.686 0.309 2.184 0.892 0.499 0.589 0.697 1.411 0.554 2.317z" style="fill:#253b80"/><path d="m95.98 13.08h-3.291c-0.314 0-0.609 0.156-0.787 0.417l-4.539 6.686-1.924-6.425c-0.121-0.402-0.492-0.678-0.912-0.678h-3.234c-0.393 0-0.666 0.384-0.541 0.754l3.625 10.64-3.408 4.811c-0.268 0.379 2e-3 0.9 0.465 0.9h3.287c0.312 0 0.604-0.152 0.781-0.408l10.95-15.8c0.262-0.378-7e-3 -0.895-0.468-0.895z" style="fill:#253b80"/><path d="m106.9 6.749h-6.84c-0.467 0-0.865 0.34-0.938 0.802l-2.766 17.54c-0.055 0.346 0.213 0.658 0.562 0.658h3.51c0.326 0 0.605-0.238 0.656-0.562l0.785-4.971c0.072-0.463 0.471-0.803 0.938-0.803h2.164c4.506 0 7.105-2.18 7.785-6.5 0.307-1.89 0.012-3.375-0.873-4.415-0.971-1.142-2.694-1.746-4.983-1.746zm0.789 6.405c-0.373 2.454-2.248 2.454-4.062 2.454h-1.031l0.725-4.583c0.043-0.277 0.281-0.481 0.562-0.481h0.473c1.234 0 2.4 0 3.002 0.704 0.359 0.42 0.468 1.044 0.331 1.906z" style="fill:#179bd7"/><path d="m127.3 13.08h-3.273c-0.281 0-0.52 0.204-0.562 0.481l-0.145 0.916-0.23-0.332c-0.709-1.029-2.289-1.373-3.867-1.373-3.619 0-6.709 2.741-7.311 6.586-0.312 1.918 0.131 3.752 1.219 5.031 1 1.176 2.426 1.666 4.125 1.666 2.916 0 4.533-1.875 4.533-1.875l-0.146 0.91c-0.055 0.348 0.213 0.66 0.564 0.66h2.949c0.467 0 0.865-0.34 0.938-0.803l1.771-11.21c0.054-0.345-0.214-0.658-0.565-0.658zm-4.565 6.374c-0.314 1.871-1.801 3.127-3.695 3.127-0.949 0-1.711-0.305-2.199-0.883-0.484-0.574-0.666-1.391-0.514-2.301 0.297-1.855 1.805-3.152 3.67-3.152 0.93 0 1.686 0.309 2.184 0.892 0.501 0.589 0.699 1.411 0.554 2.317z" style="fill:#179bd7"/><path d="m131.2 7.23-2.807 17.86c-0.055 0.346 0.213 0.658 0.562 0.658h2.822c0.469 0 0.867-0.34 0.939-0.803l2.768-17.54c0.055-0.346-0.213-0.659-0.562-0.659h-3.16c-0.279 1e-3 -0.519 0.205-0.562 0.482z" style="fill:#179bd7"/><path d="m80.71-3.211 1.022-6.494-2.277-0.05278h-10.88l7.558-47.92c0.02346-0.1447 0.0997-0.2796 0.2111-0.3753 0.1114-0.09579 0.2541-0.1486 0.4027-0.1486h18.34c6.088 0 10.29 1.267 12.48 3.767 1.028 1.173 1.683 2.399 2 3.748 0.3323 1.415 0.3382 3.106 0.01368 5.169l-0.02346 0.1505v1.322l1.028 0.5826c0.866 0.4594 1.554 0.9853 2.082 1.587 0.8797 1.003 1.449 2.277 1.689 3.789 0.2483 1.554 0.1662 3.404-0.2405 5.497-0.4692 2.408-1.228 4.506-2.252 6.223-0.9423 1.582-2.143 2.893-3.568 3.91-1.361 0.9657-2.977 1.699-4.805 2.168-1.771 0.4614-3.791 0.694-6.006 0.694h-1.427c-1.02 0-2.012 0.3675-2.79 1.026-0.78 0.6725-1.296 1.591-1.454 2.596l-0.1075 0.5845-1.806 11.45-0.08211 0.4203c-0.0215 0.1329-0.05865 0.1994-0.1134 0.2444-0.04887 0.04105-0.1193 0.06842-0.1877 0.06842z" style="fill:#253b80;stroke-width:1.955"/><path d="m111.6-45.22c-0.05474 0.3499-0.1173 0.7077-0.1877 1.075-2.418 12.42-10.69 16.7-21.26 16.7h-5.38c-1.292 0-2.381 0.9384-2.582 2.213l-2.754 17.47-0.78 4.952c-0.131 0.8367 0.5141 1.591 1.359 1.591h9.542c1.13 0 2.09-0.8211 2.268-1.935l0.09384-0.4848 1.797-11.4 0.1153-0.6256c0.1759-1.118 1.138-1.939 2.268-1.939h1.427c9.245 0 16.48-3.753 18.6-14.62 0.8836-4.537 0.4262-8.326-1.912-10.99-0.7077-0.8035-1.585-1.47-2.612-2.014z" style="fill:#179bd7;stroke-width:1.955"/><path d="m109-46.23c-0.3695-0.1075-0.7507-0.2053-1.142-0.2932-0.3929-0.08602-0.7957-0.1623-1.21-0.2287-1.451-0.2346-3.04-0.346-4.743-0.346h-14.37c-0.3538 0-0.6901 0.08015-0.9912 0.2248-0.6627 0.3187-1.155 0.9462-1.275 1.714l-3.058 19.37-0.08797 0.565c0.2014-1.275 1.29-2.213 2.582-2.213h5.38c10.57 0 18.84-4.291 21.26-16.7 0.07233-0.3675 0.1329-0.7253 0.1877-1.075-0.6119-0.3245-1.275-0.6021-1.988-0.8387-0.176-0.05865-0.3578-0.1153-0.5415-0.1701z" style="fill:#222d65;stroke-width:1.955"/><path d="m85.3-45.15c0.1192-0.7683 0.6119-1.396 1.275-1.713 0.303-0.1447 0.6373-0.2248 0.9912-0.2248h14.37c1.703 0 3.292 0.1114 4.743 0.346 0.4144 0.06647 0.8172 0.1427 1.21 0.2287 0.391 0.08797 0.7722 0.1857 1.142 0.2932 0.1838 0.05474 0.3656 0.1114 0.5435 0.1681 0.7136 0.2365 1.376 0.5161 1.988 0.8387 0.7194-4.588-0.00587-7.712-2.487-10.54-2.735-3.114-7.671-4.447-13.99-4.447h-18.34c-1.29 0-2.391 0.9384-2.59 2.215l-7.638 48.41c-0.1505 0.9579 0.5884 1.822 1.554 1.822h11.32l2.842-18.03z" style="fill:#253b80;stroke-width:1.955"/></g></svg>
