<?xml version="1.0" encoding="UTF-8" standalone="no"?>
<!-- Generator: Adobe Illustrator 16.0.4, SVG Export Plug-In . SVG Version: 6.00 Build 0)  -->

<svg xmlns:dc="http://purl.org/dc/elements/1.1/" xmlns:cc="http://creativecommons.org/ns#" xmlns:rdf="http://www.w3.org/1999/02/22-rdf-syntax-ns#" xmlns:svg="http://www.w3.org/2000/svg" xmlns="http://www.w3.org/2000/svg" xmlns:sodipodi="http://sodipodi.sourceforge.net/DTD/sodipodi-0.dtd" xmlns:inkscape="http://www.inkscape.org/namespaces/inkscape" version="1.1" id="Layer_1" x="0px" y="0px" width="87.926361" height="90.383415" viewBox="0 0 87.926361 90.383415" enable-background="new 0 0 124 33" xml:space="preserve" sodipodi:docname="PayPal.svg" inkscape:version="0.92.2 (5c3e80d, 2017-08-06)"><metadata id="metadata27"><rdf:RDF><cc:Work rdf:about=""><dc:format>image/svg+xml</dc:format><dc:type rdf:resource="http://purl.org/dc/dcmitype/StillImage" /><dc:title></dc:title></cc:Work></rdf:RDF></metadata><defs id="defs25" /><sodipodi:namedview pagecolor="#ffffff" bordercolor="#666666" borderopacity="1" objecttolerance="10" gridtolerance="10" guidetolerance="10" inkscape:pageopacity="0" inkscape:pageshadow="2" inkscape:window-width="2560" inkscape:window-height="1001" id="namedview23" showgrid="false" showborder="false" fit-margin-top="0" fit-margin-left="0" fit-margin-right="0" fit-margin-bottom="0" inkscape:zoom="3.2177419" inkscape:cx="-10.094475" inkscape:cy="13.678" inkscape:window-x="-9" inkscape:window-y="41" inkscape:window-maximized="1" inkscape:current-layer="Layer_1" /><g id="g871" transform="translate(-47.543096,60.205418)"><path id="path2" d="M 58.094276,6.749 H 51.255276 C 50.787276,6.749 50.389276,7.089 50.316276,7.551 L 47.550276,25.088 C 47.495276,25.434 47.763276,25.746 48.114276,25.746 H 51.379276 C 51.847276,25.746 52.245276,25.406 52.318276,24.943 L 53.064276,20.213 C 53.136276,19.75 53.535276,19.41 54.002276,19.41 H 56.167276 C 60.672276,19.41 63.272276,17.23 63.951276,12.91 64.257276,11.02 63.964276,9.535 63.079276,8.495 62.107276,7.353 60.383276,6.749 58.094276,6.749 Z M 58.883276,13.154 C 58.509276,15.608 56.634276,15.608 54.821276,15.608 H 53.789276 L 54.513276,11.025 C 54.556276,10.748 54.796276,10.544 55.076276,10.544 H 55.549276 C 56.784276,10.544 57.949276,10.544 58.551276,11.248 58.910276,11.668 59.020276,12.292 58.883276,13.154 Z" inkscape:connector-curvature="0" style="fill:#253b80" /><path id="path4" d="M 78.537276,13.075 H 75.262276 C 74.983276,13.075 74.742276,13.279 74.699276,13.556 L 74.554276,14.472 74.325276,14.14 C 73.616276,13.111 72.035276,12.767 70.457276,12.767 66.838276,12.767 63.747276,15.508 63.145276,19.353 62.832276,21.271 63.277276,23.105 64.365276,24.384 65.363276,25.56 66.791276,26.05 68.490276,26.05 71.406276,26.05 73.023276,24.175 73.023276,24.175 L 72.877276,25.085 C 72.822276,25.433 73.090276,25.745 73.439276,25.745 H 76.389276 C 76.858276,25.745 77.254276,25.405 77.328276,24.942 L 79.098276,13.733 C 79.154276,13.388 78.887276,13.075 78.537276,13.075 Z M 73.972276,19.449 C 73.656276,21.32 72.171276,22.576 70.277276,22.576 69.326276,22.576 68.566276,22.271 68.078276,21.693 67.594276,21.119 67.410276,20.302 67.564276,19.392 67.859276,17.537 69.369276,16.24 71.234276,16.24 72.164276,16.24 72.920276,16.549 73.418276,17.132 73.917276,17.721 74.115276,18.543 73.972276,19.449 Z" inkscape:connector-curvature="0" style="fill:#253b80" /><path id="path6" d="M 95.979276,13.075 H 92.688276 C 92.374276,13.075 92.079276,13.231 91.901276,13.492 L 87.362276,20.178 85.438276,13.753 C 85.317276,13.351 84.946276,13.075 84.526276,13.075 H 81.292276 C 80.899276,13.075 80.626276,13.459 80.751276,13.829 L 84.376276,24.467 80.968276,29.278 C 80.700276,29.657 80.970276,30.178 81.433276,30.178 H 84.720276 C 85.032276,30.178 85.324276,30.026 85.501276,29.77 L 96.447276,13.97 C 96.709276,13.592 96.440276,13.075 95.979276,13.075 Z" inkscape:connector-curvature="0" style="fill:#253b80" /><path id="path8" d="M 106.87528,6.749 H 100.03528 C 99.568276,6.749 99.170276,7.089 99.097276,7.551 L 96.331276,25.088 C 96.276276,25.434 96.544276,25.746 96.893276,25.746 H 100.40328 C 100.72928,25.746 101.00828,25.508 101.05928,25.184 L 101.84428,20.213 C 101.91628,19.75 102.31528,19.41 102.78228,19.41 H 104.94628 C 109.45228,19.41 112.05128,17.23 112.73128,12.91 113.03828,11.02 112.74328,9.535 111.85828,8.495 110.88728,7.353 109.16428,6.749 106.87528,6.749 Z M 107.66428,13.154 C 107.29128,15.608 105.41628,15.608 103.60228,15.608 H 102.57128 L 103.29628,11.025 C 103.33928,10.748 103.57728,10.544 103.85828,10.544 H 104.33128 C 105.56528,10.544 106.73128,10.544 107.33328,11.248 107.69228,11.668 107.80128,12.292 107.66428,13.154 Z" inkscape:connector-curvature="0" style="fill:#179bd7" /><path id="path10" d="M 127.31728,13.075 H 124.04428 C 123.76328,13.075 123.52428,13.279 123.48228,13.556 L 123.33728,14.472 123.10728,14.14 C 122.39828,13.111 120.81828,12.767 119.24028,12.767 115.62128,12.767 112.53128,15.508 111.92928,19.353 111.61728,21.271 112.06028,23.105 113.14828,24.384 114.14828,25.56 115.57428,26.05 117.27328,26.05 120.18928,26.05 121.80628,24.175 121.80628,24.175 L 121.66028,25.085 C 121.60528,25.433 121.87328,25.745 122.22428,25.745 H 125.17328 C 125.64028,25.745 126.03828,25.405 126.11128,24.942 L 127.88228,13.733 C 127.93628,13.388 127.66828,13.075 127.31728,13.075 Z M 122.75228,19.449 C 122.43828,21.32 120.95128,22.576 119.05728,22.576 118.10828,22.576 117.34628,22.271 116.85828,21.693 116.37428,21.119 116.19228,20.302 116.34428,19.392 116.64128,17.537 118.14928,16.24 120.01428,16.24 120.94428,16.24 121.70028,16.549 122.19828,17.132 122.69928,17.721 122.89728,18.543 122.75228,19.449 Z" inkscape:connector-curvature="0" style="fill:#179bd7" /><path id="path12" d="M 131.17828,7.23 128.37128,25.088 C 128.31628,25.434 128.58428,25.746 128.93328,25.746 H 131.75528 C 132.22428,25.746 132.62228,25.406 132.69428,24.943 L 135.46228,7.407 C 135.51728,7.061 135.24928,6.748 134.90028,6.748 H 131.74028 C 131.46128,6.749 131.22128,6.953 131.17828,7.23 Z" inkscape:connector-curvature="0" style="fill:#179bd7" /><path id="path14" d="M 80.710782,-3.2113655 81.733211,-9.7056456 79.455717,-9.7584287 H 68.580437 L 76.138199,-57.679647 C 76.161658,-57.824312 76.237901,-57.959203 76.349332,-58.054994 76.460763,-58.150786 76.603473,-58.203569 76.752047,-58.203569 H 95.089298 C 101.17695,-58.203569 105.3781,-56.936774 107.57153,-54.436417 108.59982,-53.263459 109.25473,-52.037717 109.57143,-50.688815 109.90376,-49.273445 109.90963,-47.58243 109.58511,-45.519978 L 109.56165,-45.369448 V -44.047915 L 110.58994,-43.465346 C 111.45598,-43.005937 112.14411,-42.48006 112.67195,-41.877942 113.55166,-40.875062 114.12055,-39.600447 114.36101,-38.089286 114.60928,-36.535116 114.52718,-34.685751 114.12055,-32.59202 113.65137,-30.183546 112.89285,-28.085905 111.86847,-26.369476 110.92619,-24.787937 109.72587,-23.476178 108.30072,-22.459614 106.94009,-21.493878 105.32336,-20.760779 103.4955,-20.291596 101.72433,-19.830232 99.70489,-19.597595 97.489953,-19.597595 H 96.062854 C 95.04238,-19.597595 94.05123,-19.230068 93.273168,-18.571257 92.49315,-17.898761 91.977048,-16.979943 91.818699,-15.975109 L 91.711178,-15.390584 89.904822,-3.9444645 89.822715,-3.5241544 C 89.80121,-3.3912191 89.764067,-3.3247514 89.709329,-3.279788 89.660455,-3.2387345 89.590078,-3.2113655 89.521655,-3.2113655 Z" inkscape:connector-curvature="0" style="fill:#253b80;stroke-width:1.95493078" /><path id="path16" d="M 111.5635,-45.216964 V -45.216964 -45.216964 C 111.50876,-44.867031 111.4462,-44.509279 111.37583,-44.141752 108.95758,-31.725986 100.68431,-27.436868 90.117909,-27.436868 H 84.73794 C 83.44573,-27.436868 82.356834,-26.498501 82.155476,-25.223886 V -25.223886 -25.223886 L 79.400979,-7.7546246 78.620961,-2.8027849 C 78.489981,-1.9660745 79.135108,-1.2114712 79.979638,-1.2114712 H 89.521655 C 90.651605,-1.2114712 91.611476,-2.0325422 91.789375,-3.1468527 L 91.883212,-3.6316756 93.679793,-15.032832 93.795134,-15.65841 C 93.971078,-16.77663 94.932904,-17.597701 96.062854,-17.597701 H 97.489953 C 106.73482,-17.597701 113.97197,-21.351168 116.08721,-32.212764 116.97084,-36.750158 116.51338,-40.538814 114.17529,-43.203385 113.4676,-44.006861 112.58984,-44.673493 111.5635,-45.216964 Z" inkscape:connector-curvature="0" style="fill:#179bd7;stroke-width:1.95493078" /><path id="path18" d="M 109.03382,-46.225708 C 108.66434,-46.333229 108.28313,-46.430976 107.89214,-46.518947 107.4992,-46.604964 107.09648,-46.681207 106.68204,-46.747674 105.23148,-46.982266 103.64212,-47.093697 101.93938,-47.093697 H 87.566725 C 87.212882,-47.093697 86.876634,-47.013545 86.575575,-46.86888 85.912853,-46.550226 85.42021,-45.922694 85.30096,-45.154406 L 82.243448,-25.788861 82.155476,-25.223886 C 82.356834,-26.498501 83.44573,-27.436868 84.73794,-27.436868 H 90.117909 C 100.68431,-27.436868 108.95758,-31.727941 111.37583,-44.141752 111.44816,-44.509279 111.50876,-44.867031 111.5635,-45.216964 110.95161,-45.541482 110.28889,-45.819082 109.57534,-46.055629 109.39939,-46.114277 109.21758,-46.17097 109.03382,-46.225708 Z" inkscape:connector-curvature="0" style="fill:#222d65;stroke-width:1.95493078" /><path id="path20" d="M 85.30096,-45.154406 C 85.42021,-45.922694 85.912853,-46.550226 86.575575,-46.866925 86.878589,-47.01159 87.212882,-47.091742 87.566725,-47.091742 H 101.93938 C 103.64212,-47.091742 105.23148,-46.980311 106.68204,-46.745719 107.09648,-46.679252 107.4992,-46.603009 107.89214,-46.516993 108.28313,-46.429021 108.66434,-46.331274 109.03382,-46.223753 109.21758,-46.169015 109.39939,-46.112322 109.57729,-46.055629 110.29084,-45.819082 110.95356,-45.539527 111.56546,-45.216964 112.28487,-49.805186 111.55959,-52.929166 109.07878,-55.75795 106.34383,-58.872155 101.40763,-60.205418 95.091253,-60.205418 H 76.754002 C 75.463748,-60.205418 74.363122,-59.267051 74.163719,-57.990481 L 66.525804,-9.5766201 C 66.375275,-8.618704 67.114238,-7.7546246 68.079974,-7.7546246 H 79.400979 L 82.243448,-25.788861 Z" inkscape:connector-curvature="0" style="fill:#253b80;stroke-width:1.95493078" /></g></svg>