<svg  version="1.1" viewBox="0 0 912.99299 145.08978" xmlns="http://www.w3.org/2000/svg">
 <defs>
  <clipPath id="clipPath4500">
   <text x="-2234.2856" y="459.66251" style="fill:#000000;font-family:'Expletus Sans';font-size:192px;letter-spacing:0px;line-height:1.25;word-spacing:0px" xml:space="preserve"><tspan x="-2234.2856" y="459.66251">RESOLUTE</tspan></text>
  </clipPath>
 </defs>
 <g transform="translate(2217 -317.2)">
  <path d="m-2208 466.7-0.6923-140.7c20.41-2.891 38.6-0.9015 55.47 3.981 8.327 7.654 14.19 15.37 16.99 27.87-0.5113 8.976-4.179 16.77-10.35 23.62l-36.63 12.74c-1.223 3.379 26.92 3.098 31.32 9.289 15.77 28.51 13.62 41.23 21.76 62.1l18.05 3.716 5.308-168.8 101.2 0.6863 0.1821 24.86-78.54-0.5952-1.062 127.9 79.21-1.062s2.006-18.05-10.73-20.7c-10.09-11.15-41.93-32.64-43.79-38.75l5.043-7.431h40.87l46.18-92.89 79.09 5.308-7.131 40.52-48.07-13.98c-12.41 0.2962-20.88 6.356-30.52 12.21-2.194 14.57-4.559 28.15 7.166 37.16 21.29 13.09 43.95 21.32 56 43.26-7.262 53.14-2.831 20.88-9.289 31.05l-24.42 7.962-46.71-9.82 0.5308 26.81 94.28 2.241 0.3219-118.1c14.06-33.09 45.71-57.23 67.83-83.15l14.86 8.493-1.592 41.4-41.4 15.92c-12.16 16.02-17.96 33.21-17.52 52.28 0.7695 17.2 4.908 32.59 14.86 44.85 10.58 9.162 21.98 15.43 33.97 19.64 17.69 3.057 31.26-7.616 45.28-19.12 5.677-1.63 16.03-24.74 16.45-50.69 0.0815-4.941-9.756-41.04-11.84-41.13l-24.42-19.11-27.6-2.654 113.6-59.45-0.5308 189 69.63-2.343-0.0956-167.5h24.95l3.185 135.9c4.863 17.23 13.61 29.46 25.48 37.69 0 0 29.59-9.453 32.91-5.308 7.078 8.849 28.33-29.07 26.18-33.38 2.478-32.64-0.8118-76.81-1.231-115.2l78.03-4.246 0.5308 171.4-41.93-28.13-18.58-115.7h118.9l6.9-59.45 113.6 48.83-4.777 11.15-97.14 0.5308 2.123 125.3 90.77-1.062-78.56-58.39 22.29-5.839h43.53" clip-path="url(#clipPath4500)" style="fill:none;stroke-width:21.5;stroke:#290a43" class="XJiQVTFY_0"></path>
 </g>
<style>.XJiQVTFY_0{stroke-dasharray:4628 4630;stroke-dashoffset:4629;animation:XJiQVTFY_draw_0 8200ms linear 0ms infinite,XJiQVTFY_fade 8200ms linear 0ms infinite;}@keyframes XJiQVTFY_draw{100%{stroke-dashoffset:0;}}@keyframes XJiQVTFY_fade{0%{stroke-opacity:1;}95.1219512195122%{stroke-opacity:1;}100%{stroke-opacity:0;}}@keyframes XJiQVTFY_draw_0{9.75609756097561%{stroke-dashoffset: 4629}34.146341463414636%{ stroke-dashoffset: 0;}100%{ stroke-dashoffset: 0;}}</style></svg>
