<svg version="1.1" viewBox="0 0 493.275 143.25001" xmlns="http://www.w3.org/2000/svg">
 <defs>
  <clipPath id="clipPath5217">
   <g style="fill:#000000" aria-label="Michele">
    <path d="m-1571 634q7.375-8.25 23.38-24.12 16.12-16 25.62-25 10.62-10 18-16.75 7.5-6.75 12.88-11.25 5.5-4.5 11.75-8.875 6.25-4.5 14.62-9.625l1.625 1q-21.12 23.5-25.88 29.62l-2.375 2.875q-0.625 0.875-3.25 4.125-17.75 20.5-38.75 46.25-16.62 20.88-23.5 29.88-6.75 9-10.25 14.5t-4.875 9.375 0.5 3.875q2.375 0 8.125-4.875 5.875-5 12.62-12.12t21.75-23.12q3.5-3.875 7.125-7.75 3.625-4 8.375-9.125 4.875-5.25 9.125-9.75 17.12-18.25 25.75-26.62 8.75-8.5 21.38-19.75l7.125-6.375q16.12-14.38 29.25-22l1.5 1-5.125 6.125q-26.25 31.5-46.25 56.38-19.88 24.75-30.75 39.25-10.88 14.38-17.25 24.12-6.375 9.625-6.375 11.88 0 2.75 2.75 2.75 4.25 0 11.88-5.375 7.625-5.5 18.12-15 10.62-9.625 16.88-15.25v2.125q-16.12 14.88-23.5 21.38-7.25 6.375-13.38 10.12-6 3.75-11 3.75-4.625 0-4.625-5.125 0-10 7.25-23.5 7.375-13.5 19.25-28.25 12-14.75 29.88-33.5l45.25-47q-13 7.125-46.25 38.62-1.375 1.25-3.875 3.75t-8 8-14.62 15.12q-9 9.625-17.25 18.38l-3.625 3.875q-1.5 2-3.625 4.125-15.75 17.38-23.62 25.75-7.75 8.375-14.62 14.12-6.75 5.625-10.62 5.625-0.875 0-1.75-1.5-0.75-1.5-0.75-2.75 0-8.25 5-18.38 5.125-10.25 12.38-20 7.375-9.875 15.12-18.5 20.38-23.12 31.12-34.75 10.88-11.75 25.88-26.25l17.75-16.88q-11.38 7.375-17.38 12-6 4.5-17.25 14.38-4.875 4.25-14.62 13.5-9.75 9.125-17.62 16.88t-16.5 16.62-18.25 19.38q-12.5 13.62-17.75 19.25-5.125 5.625-13.5 12.5-8.375 6.75-17.75 10.62-9.25 3.875-19.88 3.875-7.375 0-12-3.125t-4.625-8.625q0-3.75 1.625-6.375 1.75-2.625 5.5-2.625 2 0 3.625 1.5 1.75 1.375 1.75 3.375 0 1.75-1.25 3.125-1.125 1.25-2.875 1.25-4.5 0-3.25-5.125 0-0.75-0.25-1-1.375 0-2.25 2-0.875 1.875-0.875 4.125 0 4.125 4 7 4.125 2.75 10.12 2.75 11 0 20.5-3.875 9.625-4 16.88-10t12-11.12 18.62-20.88z"/>
    <path d="m-1435 604.4q2.75 0 2.75 3.375 0 2-1.125 3.25t-2.875 1.25q-3.375 0-3.375-3 0-1.75 1.375-3.25 1.375-1.625 3.25-1.625zm-43.25 44.75-0.25-2q9.5-8.625 22.25-16.38h11.25l-29.5 33q-3.125 3.5-4 6.5t1.5 3q6.25 0 18.62-9.25t22.88-19.5v2.125q-12.12 11.62-23.38 20t-18.38 8.375q-4.125 0-4.125-4.375 0-13 20.25-33.25 1.125-1.125 2-2.125 1-1.125 1.875-2-11.25 6.75-21 15.88z"/>
    <path d="m-1385 644.3v2.125q-29.62 28.62-49.38 28.62-5.25 0-7.625-2.625-2.375-2.75-2.375-9.625 0-6 3.875-12.12 3.75-6.125 10-10.75 6.25-4.75 13.75-7.375 7.5-2.75 14.62-2.75 3.25 0 5.25 1.625 2.125 1.625 2.125 4.5 0 3.25-2.625 5.875-2.5 2.5-5.625 2.5-3.75 0-3.75-3.25 0-4.875 4.375-4.875 2.5 0 3 2.25 0.5 0.75 1 0.75 0.625 0 1.25-1t0.625-2.25q0-2-1.375-3.125-1.375-1.25-3.75-1.25-6.625 0-16.12 7.125-9.375 7.125-16.25 16.25t-6.875 14.25q0 4.125 6.125 4.125 11.38 0 22.12-7t27.62-22z"/>
    <path d="m-1300 564.7h10.25l-83.12 94.25q11.88-10 26.5-19.5 14.75-9.625 19.75-9.625 5.625 0 5.625 6.125 0 7.125-4.625 12.62t-12.5 11.38q-9.75 7.125-9.75 10.75 0 2.625 3.125 2.625 6 0 16.12-7.125t25.62-21.38v2.125l-3.625 3.25q-12.5 11.5-22.5 18.25-9.875 6.625-15.62 6.625-5.625 0-5.625-5.375 0-10.25 11-19.75 8.375-7.375 11.5-10.62t3.125-5.75q0-0.625-0.75-1.25-0.625-0.75-1.625-0.75-4.875 0-27.38 16.12-18.5 13.38-32.25 27.38h-10.75l66.38-75.5-57.62 49.88v-2l35.75-31.5q15.12-13.12 23.12-20.38t14.25-13.75 15.62-17.12z"/>
    <path d="m-1297 649.9c6.917 0 12.75-0.875 17.5-2.625s8.333-3.833 10.75-6.25c2.5-2.417 3.75-4.375 3.75-5.875 0-2.417-1.417-3.625-4.25-3.625-3.75 0-8.125 1.667-13.12 5-5 3.25-9.875 7.708-14.62 13.38zm44.44-5.558-0.067 2.058c-9.333 9.333-17.88 16.46-25.62 21.38-7.75 4.833-15.58 7.25-23.5 7.25-7 0-10.5-4-10.5-12 0-6.667 2.5-12.5 7.5-17.5 5.083-5.083 11-8.958 17.75-11.62 6.833-2.75 12.38-4.125 16.62-4.125 2.417 0 4.292 0.5833 5.625 1.75 1.417 1.083 2.125 2.542 2.125 4.375 0 2.833-1.542 5.458-4.625 7.875-3.083 2.333-7.375 4.292-12.88 5.875-5.5 1.5-11.96 2.375-19.38 2.625-6.333 7.167-9.5 12.62-9.5 16.38 0 1.333 0.7083 2.458 2.125 3.375 1.333 0.8333 3.042 1.25 5.125 1.25 13.42 0 29.37-9.277 49.19-28.93z"/>
    <path d="m-1177 571.4 6.25-6.75h9.625l-78.75 88.12c-9.417 10.33-14.12 16.38-14.12 18.12 0 1.583 0.8333 2.375 2.5 2.375 2.917 0 6.25-1.208 10-3.625 3.75-2.5 8.792-6.625 15.12-12.38 6.417-5.75 11.12-9.917 14.12-12.5v2.125c-11.33 10.42-19.62 17.71-24.88 21.88s-10.04 6.25-14.38 6.25c-1.5 0-2.75-0.5417-3.75-1.625-1.083-1.167-1.625-2.5-1.625-4 0-4.25 2.083-9.208 6.25-14.88s9.792-12.29 16.88-19.88c0.5-0.6667 2-2.417 4.5-5.25 2.5-2.917 4.917-5.792 7.25-8.625-5.75 4.333-16.83 13.79-33.25 28.38l0.0446-1.777c11.07-11.24 23.64-20.65 35.46-30.97 4.333-3.667 18.58-18.67 42.75-45z"/>
    <path d="m-1207 649.9q10.38 0 17.5-2.625t10.75-6.25q3.75-3.625 3.75-5.875 0-3.625-4.25-3.625-5.625 0-13.12 5-7.5 4.875-14.62 13.38zm44.38-5.625v2.125q-14 14-25.62 21.38-11.62 7.25-23.5 7.25-10.5 0-10.5-12 0-10 7.5-17.5 7.625-7.625 17.75-11.62 10.25-4.125 16.62-4.125 3.625 0 5.625 1.75 2.125 1.625 2.125 4.375 0 4.25-4.625 7.875-4.625 3.5-12.88 5.875-8.25 2.25-19.38 2.625-9.5 10.75-9.5 16.38 0 2 2.125 3.375 2 1.25 5.125 1.25 20.12 0 49.12-29z"/>
   </g>
  </clipPath>
 </defs>
 <path transform="translate(1655 -538.4)" d="m-1647 665.5v2.5l3.75-0.25-5.5-5.75-2.5 12.75c1.904 6.019 8.232 5.402 13.25 6.75 9.52 1.777 19.72-2.134 30.25-8.75l81.25-82.25c17.32-23.35 41.06-45.34 65.25-53-27.84 32.2-87.89 91.09-110.8 133.8-1.962 5.132-3.388 8.006 2.25 8.75 22.34-14.19 49.54-49.82 74.25-74.75 23.59-23.39 57.58-64.34 77-67-33.54 40.47-75.55 80.86-102.2 123.2l-6 14.5c1.747 5.76 5.42 5.74 9.5 4.5 9.149-12.76 23.45-22.86 36.81-33.09 3.729-6.595 8.479-7.664 20.24-17.94 12.33-5.044 9.614-1.857 12.48 0.8334-17.01 18.12-21.4 23.34-30.27 34.7l-0.75 8.75c5.604 1.725 21.92-12.43 21.92-12.43 16.35-17.89 22.3-22.61 35.5-29.64 6.711-3.569 13.3-4.546 21.61-3.826l5.101 1.121c4.396 0.5101 3.369 7.71 0.3661 11.92l-8.871 4.515-1.384-4.379c1.666-1.447 3.266-3.823 5.252-0.7779l3.75-1.75 6.19-4.225c-9.804 3.456-24.14-2.761-33.31 8.268-13.02 5.761-20.34 15.6-19.63 26.99 1.895 3.923 2.389 6.075 9.002 4.964 12.26-2.923 24.33-8.527 36.25-16.5 15.96-15.63 31.42-32.82 48.06-46.1 18.41-18.95 41.44-37.19 60.1-51.4-33.68 39.42-80.66 85.33-106.8 119.6 12.37-9.881 14.46-6.969 38.36-27.23 11.87-11.11 29.54-28.65 34.51-24.11 4.863 2.015 2.333 8.56-0.1837 12.45-8.742 7.839-17.39 15.69-23.57 24 0.5428 4.29-0.9091 11.33 4.25 9.25 8.272-0.2189 15.66-5.94 23-12l13.25-12.5c15.87 7.868 27.18 2.736 36.75-4.5l5.75-4c7.915-4.742 5.576-7.62 0.5-10-8.616-5.148-15.44-0.355-22.25 3.5-5 3.586-10.74 11.19-15.27 11.91-8.725 13.18-6.489 15.39-7.232 20.59 1.965 6.19 5.667 7.166 10 6.25 9.083 0.5587 18.17-5.976 27.25-10.5l37.37-38.55c17.73-17.49 43.27-36.11 65.88-58.7h5.5c-34.93 33.21-88.77 90.86-89.5 100.5-0.8397 2.677-2.638 5.467 2 7.5 7.236 0.5318 12.77-5.314 18.75-9.5 4.398-7.61 5.866-19.98 17.77-15.39 10.24-0.8998 26.36 3.225 23.48 0.144 9.821 0.3317 12.95-6.508 18.5-10.75 2.89-2.673 2.508-5.001-1-7-15.92-3.277-23.12 7.962-34.5 12.25-5.633 6.402-14.51 18.03-10.12 23.01 0.1304 6.911 3.438 6.832 6.866 6.487 9.229 2.358 15.91-2.51 23.25-5.5 9.976-4.071 18.15-13.56 26.5-22.5l3.25-3 27.75-103-180.2-13.25-117.2 72.61c-5.937 2.949-12.96 4.087-16.25 11.45 5.835 3.379 6.848 3.277 8.071 4.304 8.701-4.538 1.656-5.123 6.589-7.286-9.128-7.873-19.32-0.7407-20.48-8.357" clip-path="url(#clipPath5217)" style="fill:none;stroke-width:9.9;stroke:#5500d4"/>
</svg>
