<svg width="493" height="143.2" version="1.1" viewBox="0 0 492.97501 143.25001" xmlns="http://www.w3.org/2000/svg">
 <defs>
  <clipPath id="clipPath5111">
   <text x="-1662.8571" y="679.66254" style="fill:#000000;font-family:'Palace Script MT';font-size:192px;letter-spacing:-.53px;line-height:1.25;opacity:.4925;word-spacing:0px" xml:space="preserve"><tspan x="-1662.8571" y="679.66254" style="font-size:256px;letter-spacing:-.53px">Michele</tspan></text>
  </clipPath>
 </defs>
 <g transform="translate(1654 -538.4)">
  <path d="m-1647 665.5v2.5l3.75-0.25-5.5-5.75-2.5 12.75c1.904 6.019 8.232 5.402 13.25 6.75 9.52 1.777 19.72-2.134 30.25-8.75l81.25-82.25c17.32-23.35 41.06-45.34 65.25-53-27.84 32.2-87.89 91.09-110.8 133.8-1.962 5.132-3.388 8.006 2.25 8.75 22.34-14.19 49.54-49.82 74.25-74.75 23.59-23.39 57.58-64.34 77-67-33.54 40.47-75.55 80.86-102.2 123.2l-6 14.5c1.747 5.76 5.42 5.74 9.5 4.5 9.149-12.76 23.45-22.86 36.81-33.09 3.729-6.595 8.479-7.664 20.24-17.94 6.438-0.957 9.534-1.747 12.48 0.8334-14.29 15.58-20.94 23.53-30.27 34.7l-0.75 8.75c5.604 1.725 21.92-12.43 21.92-12.43 16.35-17.89 22.3-22.61 35.5-29.64 6.711-3.569 13.3-4.546 21.61-3.826l5.101 1.121c4.396 0.5101 3.369 7.71 0.3661 11.92l-8.871 4.515-1.384-4.379c1.666-1.447 3.266-3.823 5.252-0.7779l3.75-1.75 6.19-4.225c-9.804 3.456-24.14-2.761-33.31 8.268-13.02 5.761-20.34 15.6-19.63 26.99 1.895 3.923 2.389 6.075 9.002 4.964 12.26-2.923 24.33-8.527 36.25-16.5 15.96-15.63 31.42-32.82 48.06-46.1 18.41-18.95 41.44-37.19 60.1-51.4-33.68 39.42-80.66 85.33-106.8 119.6 12.37-9.881 14.46-6.969 38.36-27.23 11.87-11.11 29.54-28.65 34.51-24.11 4.863 2.015 2.333 8.56-0.1837 12.45-8.742 7.839-17.39 15.69-23.57 24 0.5428 4.29-0.9091 11.33 4.25 9.25 8.272-0.2189 15.66-5.94 23-12l13.25-12.5c15.87 7.868 27.18 2.736 36.75-4.5l5.75-4c7.915-4.742 5.576-7.62 0.5-10-8.616-5.148-15.44-0.355-22.25 3.5-5 3.586-10.74 11.19-15.27 11.91-8.725 13.18-6.489 15.39-7.232 20.59 1.965 6.19 5.667 7.166 10 6.25 9.083 0.5587 18.17-5.976 27.25-10.5l37.37-38.55c17.73-17.49 43.27-36.11 65.88-58.7h5.5c-34.93 33.21-88.77 90.86-89.5 100.5-0.8397 2.677-2.638 5.467 2 7.5 7.236 0.5318 12.77-5.314 18.75-9.5 4.398-7.61 5.866-19.98 17.77-15.39 10.24-0.8998 26.36 3.225 23.48 0.144 9.821 0.3317 12.95-6.508 18.5-10.75 2.89-2.673 2.508-5.001-1-7-15.92-3.277-23.12 7.962-34.5 12.25-5.633 6.402-14.51 18.03-10.12 23.01 0.1304 6.911 3.438 6.832 6.866 6.487 9.229 2.358 15.91-2.51 23.25-5.5 9.976-4.071 18.15-13.56 26.5-22.5l3.25-3 27.75-103-180.2-13.25-117.2 72.61c-5.937 2.949-12.96 4.087-16.25 11.45 5.835 3.379 6.848 3.277 8.071 4.304 8.701-4.538 1.656-5.123 6.589-7.286-9.128-7.873-19.32-0.7407-20.48-8.357" clip-path="url(#clipPath5111)" style="fill:none;stroke-width:9.9;stroke:#5500d4"/>
 </g>
</svg>
