<svg  class="my-svg" version="1.1" preserveAspectRatio="xMinYMin meet"  viewBox="0 0 272 95" xmlns="http://www.w3.org/2000/svg">
 <defs>
  <clipPath id="clipPath5053">
   <text x="-2168.5713" y="425.3768" style="fill:#000000;font-family:'Great Vibes';font-size:24px;letter-spacing:0px;line-height:1.25;word-spacing:0px" xml:space="preserve"><tspan x="-2168.5713" y="425.3768" style="fill:#000000;font-family:Tangerine;font-size:96px">Turtle Boy</tspan></text>
  </clipPath>
 </defs>
 <g transform="translate(2164 -354)">
  <path d="m-2150 389.6-0.1768-7.336 2.298-6.894 6.364-6.364 9.016-3.801c15.69-1.194 29.31 2.315 41.37 5.215-4.367-0.1528-8.891-0.7476-12.46 1.326-5.265 4.16-9.078 9.288-11.84 15.11-2.921 9.328-6.529 17.79-10.78 25.46-2.879 2.913-4.959 6.449-9.192 8.308-4.374 1.994-8.818 3.503-13.52 3.182-4.41-0.5484-8.386-0.8423-11.35-4.287-2.356-3.487-2.026-6.306-2.352-9.325l6.629-6.983-18.21-0.9723 2.74 37.12 53.65-0.3536-12.55-14.32 20.24-16.97 8.485-6.364c-2.563 7.722-10.33 15.9-5.605 22.43 3.211-1.609 4.838-2.47 8.884-7.502 2.645-5.469 7.977-10.99 11.75-15.97-2.767 5.978-5.929 12.57-6.782 19.34 0.2365 1.835-0.4436 4.678 1.294 4.861 1.758 0.3245 2.87-0.5152 3.801-1.679l3.624-4.331-1.945-6.276 6.718-8.22 3.447-1.503c0.8623 0.5493 2.228-1.192 0.7071 4.685-4.696 8.185-3.537 12.52-5.038 19 3.044-6.74 5.947-14.43 9.448-19.55 1.516-1.807 4.017-4.391 5.694-4.587 2.851-0.491 0.9958 2.94 1.475 4.426l-2.563 4.419-7.69-19.27 28.28-9.811c-5.37 11.89-9.88 24.18-14.5 36.66l1.268 5.209c2.167 0.2805 4.222 0.5013 5.808-1.294 2.413-2.034 4.055-4.454 5.834-6.806l-17.41-12.02c6.749-1.06 12.42-1.949 19.09-1.856l9.371-37.39 22.45-21.83 16.71 5.038-1.149 22.54-9.016 1.591 3.005-10.87c0.419-5.412-3.324-5.338-8.043-3.977-6.192 4.171-11.71 9.218-15.56 16.44-5.484 10.27-9.885 20.9-13.97 31.64l-2.74 14.58c0.8811 8.128 3.62 3.068 5.149 2.696 1.656-1.288 1.614-1.172 2.983-2.806l-1.679-5.9c3.586 0.2327 7.722-1.187 11.76-2.298l7.16-2.652c1.73-3.659 0.2245-5.296-1.768-6.629-2.14 0.6812-4.183 0.5868-6.541 3.005l-4.154 9.192c0.1748 5.395 1.076 10.63 3.094 9.811l4.243 0.1768c3.171-1.008 5.022-3.666 7.336-5.745l31.38-36.15 1.591-3.182c3.98-9.183 10.76-10.81 16.97-13.97 8.755-1.532 13.18 1.666 19.62 2.652 3.234 3.526 5.135 3.886 6.145 10.72-0.8588 5.285-4.009 6.242-6.052 9.233l-11.82 1.32c4.336 2.536 9.009 4.904 12.08 8.07 2.738 4.899 3.909 10.19 2.652 16.09-4.425 5.89-9.652 9.735-15.91 10.96l-19.45-0.8839-19.17-11.45c4.397 1.057 9.039 3.172 12.98 2.259 3.748-1.232 6.39-4.455 9.369-7.071l9.016-24.22 6.718-14.32c2.914-4.312 7.486-6.456 12.55-7.955l13.79-2.298 0.7072 49.85c5.455-5.526 9.357-7.204 11.31-4.066 0.3565 4.979 0.2298 9.606-1.238 13.26-3.905 5.247-7.555 7.273-10.96 6.187-2.394-3.07-1.767-6.894-0.8839-10.78l3.182-7.071 8.132-10.78 6.718 13.97 10.08-6.541c-3.152 6.589-7.683 12.43-5.48 21.92l3.712-1.591 16.97-21.74c-4.735 13.88-10.65 26.84-17.5 39.07-5.192 6.133-12.02 6.533-18.56 7.955-10.81-3.397-6.755-11.66-4.066-14.14l3.889-3.005" clip-path="url(#clipPath5053)" style="fill:none;stroke-width:4.8;stroke:#008000"/>
 </g>
</svg>
